<svg id="LOGO" xmlns="http://www.w3.org/2000/svg" viewBox="0 0 800 800"><defs><style>.cls-1{fill:#231f20;}.cls-2,.cls-3,.cls-4{fill:#283782;}.cls-3,.cls-6{font-size:113.85px;}.cls-3,.cls-4,.cls-6,.cls-7{font-family:VinerHandITC, Viner Hand ITC;}.cls-4,.cls-7{font-size:35px;}.cls-5,.cls-6,.cls-7{fill:#fff;}</style></defs><title>Sample 1</title><rect class="cls-1" y="281" width="805" height="252"/><path class="cls-2" d="M188.3,82.54l-21,58.75c-.7,2.23-2.15,3.18-4.39,2.84H79.77l-30,80.32a97.6,97.6,0,0,0,10.83,10.69L89.3,156.49a3.57,3.57,0,0,1,3.85-2.83h83.71l22.47-60.42A100.41,100.41,0,0,0,188.3,82.54Z"/><path class="cls-2" d="M205.53,101,153.69,242.24a4.82,4.82,0,0,1-5.69,2.58c-2.74-.87-3.59-2.74-2.57-5.67l28.34-76.74H159.35l-22.14,60c-1.21,2.76-3.1,3.6-5.67,2.58-2.75-.86-3.62-2.74-2.59-5.68l21.12-56.9H96.25L67.94,240.76A99.47,99.47,0,0,0,205.53,101Z"/><path class="cls-2" d="M100.88,73.82c2.58,1,3.43,2.83,2.58,5.41L82.85,135.36H95.73v-.76l15.2-39.92c.85-2.58,2.66-3.43,5.41-2.58q4.11,2.07,2.57,5.67l-14.16,37.59h55.37L181,77A99.47,99.47,0,0,0,43.66,216.68L95.47,76.4Q96.78,72.28,100.88,73.82Z"/><text class="cls-3" transform="translate(235.86 170.31) scale(0.85 1)">HEALTHNI</text><text class="cls-4" transform="translate(370.62 225.71) scale(0.85 1)">Health Needs Inquisitiveness</text><rect class="cls-2" x="224.29" y="189.7" width="557.14" height="3.9"/><path class="cls-5" d="M188.3,320.73l-21,58.75c-.7,2.24-2.15,3.19-4.39,2.85H79.77l-30,80.32a99.39,99.39,0,0,0,10.83,10.69L89.3,394.68a3.58,3.58,0,0,1,3.85-2.83h83.71l22.47-60.41A100.5,100.5,0,0,0,188.3,320.73Z"/><path class="cls-5" d="M205.53,339.22,153.69,480.43A4.81,4.81,0,0,1,148,483c-2.74-.86-3.59-2.74-2.57-5.66l28.34-76.74H159.35l-22.14,60c-1.21,2.76-3.1,3.61-5.67,2.59-2.75-.86-3.62-2.75-2.59-5.68l21.12-56.9H96.25L67.94,479A99.47,99.47,0,0,0,205.53,339.22Z"/><path class="cls-5" d="M100.88,312c2.58,1,3.43,2.83,2.58,5.41L82.85,373.56H95.73v-.76l15.2-39.92c.85-2.58,2.66-3.44,5.41-2.58q4.11,2.07,2.57,5.66l-14.16,37.6h55.37L181,315.23A99.48,99.48,0,0,0,43.66,454.88L95.47,314.6C96.34,311.85,98.14,311,100.88,312Z"/><text class="cls-6" transform="translate(235.86 408.5) scale(0.85 1)">HEALTHNI</text><text class="cls-7" transform="translate(370.62 463.91) scale(0.85 1)">Health Needs Inquisitiveness</text><rect class="cls-5" x="224.29" y="427.9" width="557.14" height="3.9"/><rect class="cls-2" y="551" width="800" height="241"/><path class="cls-5" d="M188.3,594.91l-21,58.75c-.7,2.23-2.15,3.18-4.39,2.84H79.77l-30,80.32a98.49,98.49,0,0,0,10.83,10.69L89.3,668.86A3.57,3.57,0,0,1,93.15,666h83.71l22.47-60.42A99.5,99.5,0,0,0,188.3,594.91Z"/><path class="cls-5" d="M205.53,613.39,153.69,754.6a4.8,4.8,0,0,1-5.69,2.58c-2.74-.86-3.59-2.74-2.57-5.66l28.34-76.74H159.35l-22.14,60c-1.21,2.75-3.1,3.6-5.67,2.58-2.75-.86-3.62-2.74-2.59-5.68l21.12-56.9H96.25L67.94,753.13A99.47,99.47,0,0,0,205.53,613.39Z"/><path class="cls-5" d="M100.88,586.19c2.58,1,3.43,2.83,2.58,5.41L82.85,647.73H95.73V647l15.2-39.92c.85-2.58,2.66-3.44,5.41-2.58q4.11,2.07,2.57,5.67l-14.16,37.59h55.37L181,589.4A99.48,99.48,0,0,0,43.66,729.05L95.47,588.77Q96.78,584.65,100.88,586.19Z"/><text class="cls-6" transform="translate(235.86 682.68) scale(0.85 1)">HEALTHNI</text><text class="cls-7" transform="translate(370.62 738.08) scale(0.85 1)">Health Needs Inquisitiveness</text><rect class="cls-5" x="224.29" y="702.07" width="557.14" height="3.9"/></svg>