<svg id="LOGO" xmlns="http://www.w3.org/2000/svg" viewBox="0 0 800 218.31"><defs><style>.cls-1,.cls-2,.cls-3{fill:#fff;}.cls-2{font-size:113.85px;}.cls-2,.cls-3{font-family:VinerHandITC, Viner Hand ITC;}.cls-3{font-size:35px;}</style></defs><title>full logo white</title><path class="cls-1" d="M187.43,34.2,166.46,93c-.69,2.23-2.14,3.18-4.38,2.84H78.91l-30,80.32a98.67,98.67,0,0,0,10.84,10.7l28.66-78.66a3.59,3.59,0,0,1,3.86-2.83H176L198.47,44.9A101.43,101.43,0,0,0,187.43,34.2Z"/><path class="cls-1" d="M204.67,52.69,152.82,193.9a4.81,4.81,0,0,1-5.68,2.58c-2.75-.86-3.6-2.74-2.57-5.66l28.33-76.74H158.48l-22.14,60c-1.21,2.76-3.1,3.61-5.67,2.58-2.74-.86-3.61-2.74-2.59-5.67l21.13-56.9H95.38L67.07,192.43A99.47,99.47,0,0,0,204.67,52.69Z"/><path class="cls-1" d="M100,25.49c2.57,1,3.43,2.82,2.57,5.41L82,87H94.87v-.76l15.19-39.92c.86-2.58,2.67-3.44,5.41-2.58,2.74,1.37,3.61,3.27,2.57,5.66L103.89,87h55.37L180.13,28.7A99.47,99.47,0,0,0,42.79,168.34L94.61,28.07Q95.9,23.93,100,25.49Z"/><text class="cls-2" transform="translate(234.99 121.97) scale(0.85 1)">HEALTHNI</text><text class="cls-3" transform="translate(369.76 177.37) scale(0.85 1)">Health Needs Inquisitiveness</text><rect class="cls-1" x="223.43" y="141.36" width="557.14" height="3.9"/></svg>