<svg id="LOGO" xmlns="http://www.w3.org/2000/svg" viewBox="0 0 800 226.14"><defs><style>.cls-1,.cls-2,.cls-3{fill:#283782;}.cls-2{font-size:113.85px;}.cls-2,.cls-3{font-family:VinerHandITC, Viner Hand ITC;}.cls-3{font-size:35px;}</style></defs><title>full logo blue</title><path class="cls-1" d="M195,44.49l-21,58.75c-.7,2.24-2.15,3.18-4.38,2.84H86.45l-30,80.33A99.39,99.39,0,0,0,67.31,197.1L96,118.44a3.59,3.59,0,0,1,3.86-2.83h83.7L206,55.19A101.43,101.43,0,0,0,195,44.49Z"/><path class="cls-1" d="M212.22,63,160.37,204.19a4.82,4.82,0,0,1-5.69,2.58c-2.74-.86-3.59-2.74-2.57-5.66l28.34-76.74H166l-22.14,60c-1.21,2.76-3.1,3.61-5.67,2.58-2.75-.86-3.62-2.74-2.59-5.67l21.13-56.9H102.93L74.62,202.72A99.47,99.47,0,0,0,212.22,63Z"/><path class="cls-1" d="M107.57,35.78q3.86,1.55,2.57,5.41L89.53,97.32h12.89v-.76l15.19-39.92c.86-2.58,2.67-3.44,5.41-2.58,2.74,1.37,3.6,3.27,2.57,5.66l-14.16,37.6H166.8L187.68,39A99.48,99.48,0,0,0,50.34,178.64L102.16,38.36Q103.45,34.22,107.57,35.78Z"/><text class="cls-2" transform="translate(242.54 132.26) scale(0.85 1)">HEALTHNI</text><text class="cls-3" transform="translate(377.31 187.66) scale(0.85 1)">Health Needs Inquisitiveness</text><rect class="cls-1" x="230.98" y="151.66" width="557.14" height="3.9"/></svg>