<svg id="LOGO" xmlns="http://www.w3.org/2000/svg" viewBox="0 0 582.95 124.69"><defs><style>.cls-1{fill:#fff;}</style></defs><title>name-only white</title><path class="cls-1" d="M76.22,22.63a13.77,13.77,0,0,0,3,1l.91,3L79,29.05,75.7,38v1.05l-1.33.55-.19.77h-.71a7.65,7.65,0,0,1,.71,3.1l-.71.22-.19,3.38-1,1.49L72,50.73l-.62.22.19,1.82L71.05,54v2l-.38.55v1.83L70,60.24l5.32,1,.38.44,2.37-.33a3,3,0,0,0,1.24-.44l1.28-1,2,.33,2.23-1.38a17.94,17.94,0,0,0,3.9-1.61l2.13.5v4l-1.57,2.77v1l-1.37-.22-1,.44-1.37-.22-1.33.78-.62-.56-.95,1.39-3.33.77-1.94,1.22H75L72.42,70l-.19-.56L70.67,70l-1.1,2v7.91l-.47.78.71,1.82-.24,2.27L70,86.62v1.83l1,.77h2.23l1.76.56.28,2-1.57,1.5-.28,1.55-1.76,2.87-.38,1.77L70,100.78l-.43,1.61L66,104.88a7.37,7.37,0,0,1-1.14,1.74c-.32.31-.66.63-1,1l-.48.44-3.09,1.22.2-2,1.13-.82.43-1.55.48-.5.38-1.22-1.29-1.38,1.1-5.86-.19-.83.38-1.77-.38-1,1-3.6-.66-3.54.28-1,.19-7.69.19-2.16-.19-.5v-1l-1-2V69.42l-2.05-.27v1.6l-2.84-.55h-.86l-2.71,1.21v.83l-2.66.56-1.33-.56-.19.56-.9-.34-3.09.67-4.89,2.16-.57,1.16V84.8l-.66,1.6L43,88v2.27l.19,1-.86.77L42,94.31l.19,2.38.48.44a5.38,5.38,0,0,1-1.14,2.16H40.22V100l-.61.55a10,10,0,0,0-1.24,2.27H38l-1.09,1.33-2.42-.56H33.1l-1.05-1,.24-1.11A4.84,4.84,0,0,1,33.34,100l.19-2.55L33.1,95.7l.43-3.43-.19-2L34,87.4l-.19-2.6.19-.22v-1.5l.67-1.77v-1L34,78.94l.67-2.88-1.14-1.22-1.48-.22-.66,1-.71-.56a3.1,3.1,0,0,1-1.95.78l-.95,1L22,78.11h-.57l-.71,1-1.75-1-1.53.83-.52-1,.52-1.44L17,75.84l.72-3.6,1.56-.83.38-.66L22.7,70l1.57.44.47.55,2-1,1.76.22L29.82,70l1.33.44.43-.78.67-.22.38.22.9-.49c.16.33.9.6,2.23.83l.66-1.39L36,64.78a10.18,10.18,0,0,0,1.57-3.32l-.62-.22.9-1.61-.9-3.37.62-3.87-.43-4,.71-1.05-.28-.78.66-1.82-.38-3.49-1.71.12a3.89,3.89,0,0,0-1.49.6,5.31,5.31,0,0,0-1.5,1.55l-.85-.27-.86.94a3.28,3.28,0,0,1-1,.77l-1.43.55.43,2.27-.9,2.66-.19-1.61a28.52,28.52,0,0,0-2.43,2.6l-.71-.55-1.71.66-.19.67-1.57,1V54L18.8,53l-1.13-1.5V49.35l.85-2.83,2.23-2.82,1.76-.83,1.19-1A13.83,13.83,0,0,1,26,40.61l.48-.78,1.95-.44.47-.77H30l2-1.83h1.48L34,36h2l1.71-1.05a5.32,5.32,0,0,0,1.19-1.55l1-.11a5.29,5.29,0,0,0,1.62-.88l.19-1.06L43,31.09l.71-1h.66l1.28-1.83,2.43-1,2.23.22a16,16,0,0,0,2.23,2.82v2.6l-.47,1-2.43.44-.42,2.38L48,41.44,47,46.3v1.55l-.85,1,.19,1.83-.67,1-1.56,8.52-.9,1.44L43,64.56l.52,1,1.71-.22,2.13.77,2.28-.55,5-.44H55.9l.38.44,3.08-.77.52-.5h1.71l1.95.5,1.38-.94-.38-2.93,1.14-1.83-.57-1.71.71-2.6-.14-2.49.43-1.77-.43-1.61.43-1.38a5.81,5.81,0,0,1,1-1.77l-1-1.49,1.14-3V39.39l-.47-2.6.47-.83-.47-.77,1.37-2.82.38-.23.29-2.82.66-.49L70,27.72l1.33-.66L74,24.46h1.52Z"/><path class="cls-1" d="M151.35,26.23l.34.33-3,4.53-.29.61-2.14,1.22L145,32.37a6.34,6.34,0,0,1-2.42,2l-.86-.22-.9,1.55-1.05.5L138.15,35l-.47-1.6-3.23.83-2.14-1-3.7.83H125a20.59,20.59,0,0,1-1,5.09l.28.55-.57,3.87-.71,2.82v2.16l-.48.55.29,1,7.69.72,3.9-.94,3.32,1.05,1.85-2.49h2.9l.38,1,1.57.77v1.6l-.81.89a12.33,12.33,0,0,0-1.33,2.88l-2.52,2-1.66.89a5.63,5.63,0,0,1-2.42.44l-5.37-.78-2.7.56-2,.77-2.13-.33-1.19.33H121l-.38.22-.86,2.66-.57,2.27L118,66.93l-1.28,8.36-.85,8.85L115,86.4l-.14,6.2.9.72,3.42.55,1.43,1h1.94l1,.71,1.43-.49,1.47.61,4.37-.72,2.13.11.43-.45h2.23l2-.77,1.85.22.48-.44,4-1.38-.71-1.83.52-1.22a37.26,37.26,0,0,1,1.95-5.64l2.42.22,1.75-1.27h2.71a17.76,17.76,0,0,0,3.52,3.87l.38,3v1l-.86,1.38v1.05l-1.09.78v1.22a7.08,7.08,0,0,1-4.37,2.59l-.43,1a2.35,2.35,0,0,1-.76.94l-1.23,1-5.18.22-2.33,1.83h-3.51l-.86-.61-.71.61-.85-1-4.18,1.49h-2.14l-.66.77-2.66-.55-3.28,1.11-1.57-.33-1.18.77-2.71-.44-3.61.44-1.38-.44-.85,2.27-.86,1.27-.24.77a9.76,9.76,0,0,1-1.23,1.83v.55a10.53,10.53,0,0,0-1.57,2.49l-2.42,1-3,2.38-.85-2.6.57-1.83-.1-2,1.66-2.82,1.67-.83,1-3.05-2.43-.77-.57.55-1.18-1H96.12l-.66,1-2.95-.22-1.8-3.43v-2.6h-.15l-.18-1.77,1.09-.49.38-1,2-1.94h2.23l2-.88a11.57,11.57,0,0,1,4.28,1.11l2.14-.89a8.72,8.72,0,0,1,3.7,1l.57-1.44-.29-1.38,1.76-11a28.89,28.89,0,0,1,1-4.2L111,72.8l.86-2,1.47-10.51L111.7,57a12.41,12.41,0,0,1,2.42-3.26l-.38-2.6.57-.22,1-2.6L115,47.08l.76-1.83-1.09-1.77.62-2-.43-1.39V38l.71-1.22-.9-1V32.92l-3.37-.78h-.9l-6,1.66L101,33.14l-.9,1.6L98.26,35,96.69,31.7l.62-1.38L98,30.1l.57-1.27L101,26.45h1.71l.91-2,.66.22a8.3,8.3,0,0,1,1.57-1.5h.85l1.28.45,2.9.22,3.14-.44,1,.77v-.33l.57-.44,1.76.77.1-.55,3.18-.78-.48-.22a9.52,9.52,0,0,1,3.33-1.6l-.43,1.6.71.44,3-.88.72,1,3.65.67.9.83.77-.22.38,1.21,3.6-1.21v.77l1.67.22,2-.77,4.84,1.1,4.32-4.53,1.14-.55h1.67l1.18.88.19,1.71-1.75,2.94Z"/><path class="cls-1" d="M207.2,15.16l2.24.34,1.09,2L210.34,20c.09.48.18.9.26,1.25s.21,1.48.4,3.4l.38,1.32v2.05l1.09,1.27v.78L214,44.48h.48l.66,1h-1.52c.6,2,1.11,4.12,1.52,6.25l1.57.67L218.22,51l1.57.77h.66l.19.23.29-.23a4.82,4.82,0,0,0,1.95.45l2.42-2.05,3.8.28.19-.83,2.42.83,4.23-1.28.85-1a2.74,2.74,0,0,1,1.24-.89l1.9-.72.85,1.61h1.57L243,50.4a12.26,12.26,0,0,1-1.75,3.15l-.48-.33L237,57.86,235,59.41h-4.65l-2.61.83-2.28-.61-4.56,2.27-.29-.22-2.8,1.38.67,12h.19v.56l-.67.83.67.66.19,2.6.47.55-.47,1,.9,1.44.47,4.43.67,1,.66-.28.24.72-.09.78h-.62l.19,6.47a18.87,18.87,0,0,1-1.76,2.82l-1.71.22-.52,1.6-1.24-.22.19,1.44-.76,1.11A14,14,0,0,1,213,105l-1.66-1.61a3.15,3.15,0,0,1-.67-1.21l-.57-1.61v-3.1l-.9-4.86-.38-.78.38-3.15L208.77,86l.9-2.16-1.09-4.53a9.41,9.41,0,0,0,.57-2.82l-.38-.83.38-2.38a29,29,0,0,0-.57-4.09l.86-2.22-.29-3.65-1.42-1-1,.44v-.44l-2.14.22.19,1.55-1-.33-1.19.33-.29.22A8.42,8.42,0,0,1,198,65.55l-1.38-.22-2.8,1-2.94.6-.19,1.44-2.05-1v1h-.38L186.88,70h-1.95l.71,2.26-1.85-.44-2.85,2-.66.83-1.57-.55L177,75.62h-1.71v1.49l-1.76.33-.71,1.83-.85,1-1.19,3.54.33.34a7.74,7.74,0,0,1-1.56,2l-.19,3-1.38,1.22.19.61h-.67v1.22l-1.56,1.38v.44a10.72,10.72,0,0,0-1.1,2h-.38L163.27,100l-.42-.72v.44l-1.14,1-.29,1a3.65,3.65,0,0,1-1,1.55l-1.76-.77q-.28-.94-.48-1l.19-.78v-.44l.29-1a12.27,12.27,0,0,1-.67-4.2l.67.38-.48-.6v-.78l.19-.22L158,92.49l.38-1-.47-1.27.28-.44c-.06-.81-.12-1.94-.19-3.38l.9-.83L161.52,88h1.56l5.51-8-.85-.66.19-1.16-1.76.83-.28.55-.38-.22-1.1.66a5.38,5.38,0,0,1-2,.56l-1.57-2.38c.76-2.25,1.45-3.52,2-3.82,0-.41.52-1.23,1.56-2.49l1.1-.39-.19-.22,1.75-2.82h.19l4.18-1,.48,1,.85-.22.19.22h.52l.38-1,1.38.22v-.44l1-1.06-.67-1.32.86-1.5,2.23-1-.19-.61.28-.83a6.91,6.91,0,0,1,1.48-1.77q.9-4.2,1.94-4.87h-.38L184.08,51l.18.22L187.59,45h-.19l1.23-2.16h.29l2.66-5.64H192l2.23-4.31.67-.22L196,30.32a14.28,14.28,0,0,0,.85-2.49l1.57-1.38v-.22l.85-2.6.53-.22.19-2.05h.66l.19-.78H201l.53-1.27,3.75-2.6ZM199.75,31.7l-1.57.44v.78l-1.57,1.82h-.47L194,38.34h-.19l-1.57,3.54v.55l-.57,1a2.17,2.17,0,0,1-.8.94l-1.33.88-.62,1.83a18.44,18.44,0,0,0-.48,3.87l-.85-.22-.19,1.44-1.76,1.6.19.22v1.27l-1.57.78-1.23,4a8.52,8.52,0,0,1-.71,1.82l-1.14,1.83.19.33v.22l.47.28h2.81l1.18.77,3.71-2.6,3.08-.22.19.77.29-1.38h1.76l3.13-1,.85.33,1.95-.78v-.22l3-1.16v-.22l3.65-1V56.59l-1.23-1.33V51l1-2.82-1-.83-1.38.83L203,45.25l2.47-.22v-.77l-2.94-.78.28-.83L202,41.44l.57-1.06L201,37.56l.29-.55.42-.22L201,36l-.57-3.82Z"/><path class="cls-1" d="M274.93,21.36c1.71-.3,4.71.39,9,2.05l.85.82a3.53,3.53,0,0,0,1.38.78l-.28.66,3.8,3.38L291,31.31l-2.38,3.43L284.33,38l-.57,2-.29-.44-1.56-.22-.86.22-.8-1.27a4.23,4.23,0,0,0-1.1-1.22L277.54,36l-.9-2.27h-.48l-.38-.77-1.09-.33a2.22,2.22,0,0,1-1-.61l-1-1.11-1.37.83-.57,1.44-2.28,3.43v2.49L267,41.88l-1.57,9.51.1,1.38-2.14,13c-.32,1.85-.54,3.4-.67,4.65l-.42.33.19.66-.76,1,.19,1.61-.19,1.33-.48.66a9.23,9.23,0,0,0-.57,2.38l-.52,2.87-.85,2a24.73,24.73,0,0,0-.91,3.6l-1.8,2,.38,1.44-1.38.61.38,1.82,5.08.45h1.57l1.52,1.32,7,.45-.71-.22,1.37-.23,3.33.23,1.52-.23,1.09.72,2.9.56,1.09-.83,2,.27H285l.86-.49,2.42.49-.38-1.49a10,10,0,0,1,1.95-2.82l4.65-3.65.71-.22,3.66-2.05,1.38.22a15,15,0,0,0,3.7,3.1l-.66,1.77a7.18,7.18,0,0,1-.91,1.66L301,93.65l-2,.66c-.35.52-1,1.66-1.9,3.43l-1.76.44-.52.78h-.66l-1.95,1.6-1.57-.22-.85.66-2.24-.44L285,102.39l-3.13-.28-.38.72-.9-.72-1.71.5-.34,1-2.42-1h-.57l-1.57,1H271.6l-2.23.23H267l-3.8.55-.9-.78-1.24.78-2.23-.55-8-.23-2.42-.44-.24-.77-.85,1-.67-.22-.9,1.44h-1.57l-.19-3-.66-.22-.86.44-1.94-1-2.76.56-2-.78-.19-.83h-1.33l-1.37-1-.57-3.65,1.94-.22,1-3.05,1.09-.38a17,17,0,0,0,2.71-2V89l2.89-.33L243.49,90c1.1.15,2.09.29,2.94.44l.86.61h.47l.38.22h1.57l.9.22,1.33-1.71c.1-.92.33-2.33.71-4.21l.38-.44.86-4.2.19-4.87.71-.22,1.76-8.46-.24-5.48,1.38-2.27-.86-1.21.86-.34.66-2-.47-.44.9-6a2.8,2.8,0,0,0-.71-1.22V47.08l.52-.33.19-5.31.85-1.83-.19-2.6.67-.44.9-4.2.67-.23.57-2,3.13-2.82,2.42-1.83h.48l.43-.77,1.71-.22L272,22.63l.9-.22-.42-.61Z"/><path class="cls-1" d="M370.57,22.08l3.33-2.27,2-.39-.19,3.43-1.86,2.82-3.13,1.83-.57,1.44L367,30.54l-.52,1.05L364,32.7l-3.42.44-1.52.44-1.09-1-1.33.55.48-1.83L354.85,31l-.71.33-1.23-.55-1.38.55-.85-.55-1.38.55a25.69,25.69,0,0,1-1.38,3.54l-.85,1.83-.38,3.37-2.95,7.47-.19.83-1,1.6a5,5,0,0,0-.57,2.66v2.65l-.66,2-1.09,2-.86,3.87.67,1.61-.67,3.59-.47,1,.28,1.22-.66.77.38.5-.38,2.6.19.78L338,77.66,337.9,80l-1,3.54-.61,4.26-2.9,7.25v.83l.67,1.21-1.33,1.39a6.07,6.07,0,0,1-1.76.66v.22l-2.61,2.38-1.38-.22-.38-1.33-2,.33-1.57-1.16,1.14-3.26.62-.22,2.23-4.21a4.21,4.21,0,0,1,1.57-2.82l.19-2.82.57-3.65,1.18-3.26,1.24-4.1-.76-3.15.47-2.87.91-3.27a18.39,18.39,0,0,1,.78-4.34,6.59,6.59,0,0,1,1-1.91l-1-1.21.67-1.28-.38-1A9.76,9.76,0,0,1,335,52.61V51.39l1.05-.55L335.86,49l-.48.56.67-1.83-.48-1,1-3.65-1-1v-.44l1-.83V39.5l-.71-.66.71-1.39L338,32.14l-1.42.23-7.12,1.82L327,33.8l-.85,1.05-2.09.56.33,2-2.94,2.38-1.57,1.83-.66-.33-.86.88a5.46,5.46,0,0,0-.9,1.94l-2.42.77-.38,1-.67-.22-.9-1.83-2.61-2.59-1.19-3.88.28-1h1.29A15.86,15.86,0,0,1,314,33.14l.67-2.16,2.42-.66v-.78l1.57-.22.38-1.16,3.32-.22,1.33-.22,1.09.44.48-1,2.42.33.9-.33h1.52l-.28-.22,1.37-.83,1.57.33H335l.86-1.11.9.33,3.09-.33.19-.66h.9l.85.66h1.1l.28.33,2.42-.55,2.81-1.05.71.83,2.23-.22,1.76.44,2.8,1-.19-.45,1.76-1.82,3.32.44a16.48,16.48,0,0,1,4.47-1l1.94.34Z"/><path class="cls-1" d="M427.33,22.63a13.6,13.6,0,0,0,3,1l.9,3-1.09,2.38-3.33,9v1.05l-1.33.55-.19.77h-.71a7.49,7.49,0,0,1,.71,3.1l-.71.22-.19,3.38-1,1.49-.29,2.16-.62.22.2,1.82L422.15,54v2l-.38.55v1.83l-.66,1.82,5.31,1,.38.44,2.38-.33a2.93,2.93,0,0,0,1.23-.44l1.29-1,1.94.33,2.24-1.38a18,18,0,0,0,3.89-1.61l2.14.5v4l-1.57,2.77v1L439,65.33l-1,.44-1.38-.22-1.33.78-.62-.56-.95,1.39-3.32.77-1.95,1.22h-2.23l-2.61.83-.19-.56-1.57.56-1.09,2v7.91l-.48.78.72,1.82-.24,2.27.43,1.82v1.83l1,.77h2.23l1.76.56.28,2-1.56,1.5-.29,1.55-1.76,2.87-.38,1.77-1.32,1.27-.43,1.61-3.56,2.49a8.06,8.06,0,0,1-1.14,1.74c-.32.31-.67.63-1.05,1l-.47.44-3.09,1.22.19-2,1.14-.82.43-1.55.47-.5.38-1.22-1.28-1.38,1.09-5.86-.19-.83.38-1.77-.38-1,1-3.6L414,85.13l.29-1,.19-7.69.19-2.16-.19-.5v-1l-1-2V69.42l-2-.27v1.6l-2.85-.55h-.85L405,71.41v.83l-2.66.56L401,72.24l-.19.56-.9-.34-3.09.67-4.89,2.16-.57,1.16V84.8l-.67,1.6L394.13,88v2.27l.19,1-.85.77-.38,2.27.19,2.38.47.44a5.38,5.38,0,0,1-1.14,2.16h-1.28V100l-.62.55a10.16,10.16,0,0,0-1.23,2.27h-.38l-1.1,1.33-2.42-.56H384.2l-1-1,.24-1.11a4.59,4.59,0,0,1,1-1.49l.19-2.55-.43-1.76.43-3.43-.19-2,.67-2.82-.19-2.6.19-.22v-1.5l.66-1.77v-1l-.66-1.32.66-2.88-1.14-1.22-1.47-.22-.67,1-.71-.56a3.1,3.1,0,0,1-1.94.78l-1,1-5.74,1.22h-.57l-.71,1-1.76-1-1.52.83-.52-1,.52-1.44-.52-.61.71-3.6,1.57-.83.38-.66L373.8,70l1.57.44.48.55,1.94-1,1.76.22,1.38-.22,1.33.44.42-.78.67-.22.38.22.9-.49c.16.33.9.6,2.23.83l.67-1.39-.48-3.81a10,10,0,0,0,1.57-3.32l-.62-.22.91-1.61L388,56.26l.62-3.87-.43-4,.72-1.05-.29-.78.67-1.82-.38-3.49-1.71.12a3.87,3.87,0,0,0-1.5.6,5.57,5.57,0,0,0-1.5,1.55l-.85-.27-.86.94a3.07,3.07,0,0,1-1,.77l-1.42.55.42,2.27-.9,2.66-.19-1.61a29.89,29.89,0,0,0-2.42,2.6l-.71-.55-1.71.66-.19.67-1.57,1V54l-2.85-1-1.14-1.5V49.35l.85-2.83,2.24-2.82,1.75-.83,1.19-1a14.05,14.05,0,0,1,2.33-1.27l.47-.78,1.95-.44.48-.77h1.09l2-1.83h1.47l.48-.83h1.94l1.71-1.05A5.32,5.32,0,0,0,390,33.36l1.05-.11a5.39,5.39,0,0,0,1.61-.88l.19-1.06,1.33-.22.71-1h.67l1.28-1.83,2.42-1,2.23.22a15.62,15.62,0,0,0,2.24,2.82v2.6l-.48,1-2.42.44-.43,2.38-1.23,4.65-1,4.86v1.55l-.86,1,.19,1.83-.66,1-1.57,8.52-.9,1.44-.19,2.88.52,1,1.71-.22,2.14.77,2.28-.55,5-.44H407l.38.44,3.09-.77.52-.5h1.71l1.95.5,1.37-.94-.38-2.93,1.14-1.83-.57-1.71.72-2.6-.15-2.49.43-1.77-.43-1.61.43-1.38a6.12,6.12,0,0,1,1.05-1.77l-.95-1.49,1.14-3V39.39l-.48-2.6.48-.83-.48-.77,1.38-2.82.38-.23.28-2.82.67-.49.43-1.11,1.32-.66,2.66-2.6h1.52Z"/><path class="cls-1" d="M520.88,14.89l.38.27h1.14l4.37,3.6,3.14,3.87-5.27,4.43-.67,1-3.61,1-1.76-.22-1.51-1.33h-.91l-4,9.51-1.75,2.38-.19,2.49-1.52,3.37-.72,2.6-.85,1.5L506.78,53l-.62,1.93a7.44,7.44,0,0,1-1.23,1.66v1.27l-.62,2.38.43,1.44a19.51,19.51,0,0,1-1.28,3.65l.18,2L503,70l.48.44V71.8l.85,1-.47,1.82.47,4.09H504l-.18,3.05c0,.59.67,1.79,2,3.59l-.48.83.86,1.22.52,5.2-1.19,1.27v1.49l-.66,1.77h-.62l-2,3.43-1.71-.22L499,102.5l-2.85,2.38-2-4.32V96.14l-.67-3.87.29-1.83L491,85.85l.67-1.27-.67-1.5.48-.55-1.76-.77-.67.55a9,9,0,0,0-1.75-2.93h-.67l-1.09-4.32-2-2.15-1.05-2.49a8,8,0,0,1-.9-2.6L479,65l-.67-1.61.19-1.27-.71-1.21-.66-.34-.57-1.71H476l-.67-2.16L474,54.6a5.94,5.94,0,0,1-.57-2l-1.14.28L471,56v1a36.5,36.5,0,0,1-1.09,4.87l-.95.61.47,1.77,1.1.83-.43,2.49v2.82l-2.23,3.15.19,2.27-.57,1.6.57,1.72-.38.55.19,1.6L467,83.58v1.55l-.85,1.27-.72,3.38v1l-.38.44-2.23,8-.66,1.49-1.76,1,.19.61-3.51,1.77-1.76-.56-.48-2L456,100l-.52-.72h-1.33v-.55l1.52-1.61-.38-2,1.57-.45L459,91.27l.67-3V87l1.09-1.39V83.31l2.9-13.89-.19-.83V66.33l1.28-2.27-.38-1.55,1-2,.19-1.38.53-2-.24-1,.71-3-1.85-5.48a4.24,4.24,0,0,1,1.38-1.44l-.72-2.87.48-1.77.9-.23.19-1.6h-4l-4,1.6-.85-.6L456,45.75l-5.56,6-2.94,1.5-1.23-2.82v-2l1-.5-.19-1.1-.66-.23V45.25l1-1v-1l1.76.71.47-.71-.66-.78a18.65,18.65,0,0,1,2-3l2.42-.77.19-1.83,1.09.22.91-1.16a3,3,0,0,1,1-.66l1.9-.78.19-.44,1.33-.17a2.59,2.59,0,0,0,1.43-.66,7,7,0,0,1,2.94-1l2.28-.44,5.32-3.54,1.28-1.6,2.71-1.22,2.37-.33,1.24,2.93c-.92,1.88-1.3,3.25-1.14,4.09L480,41l.72,2.11v1.49h1.23l.19,2.27,2,2L484,50.4l.43.55,3.75,7.47,4,9.18,1.09,1.32v.72l.86,1.11,1.38.22.19-1.33.66-.22v-.83l1.76-6.69.14-1.6a22.53,22.53,0,0,1,.95-3.49L501,55.26V54l1.05-2V50.4a11.44,11.44,0,0,0,1.56-4.1,2.51,2.51,0,0,0,.81-.88l.48-.72,2.7-8.46a4.2,4.2,0,0,1,.95-1.61l.62-2.93.86-.83,1.09-2.38.66-2.26.86-1.22a7.55,7.55,0,0,0,.9-2.16l.86-.22,2.46-5.36,1.05-1.11h.47c.38-.66.68-1,.91-1Z"/><path class="cls-1" d="M562.91,21.8l.86.39.19,2.27,2,.77V26l-1.38,1.06-.38,1.43a23.68,23.68,0,0,0-6,3.65,9.56,9.56,0,0,1-2.42,2.6L550,38l.72,1.05-1.38,3.37a16.4,16.4,0,0,1-.86,3.6l-.61,1.82-1.86,10-1.23,9.52-.71-.22v7.46h-.48l.48,1.22-.19,1.27.62,8.74-.24.77.9,1,4.65-.44,1.14.5a6.33,6.33,0,0,1,1.71,1c-1.64,2.77-2.82,4.17-3.51,4.2l-.38,1-1.38-.22-1.38,2.27-1,.22-.62.94a13,13,0,0,1-2,1.66l-1.19-.22-2.42,1-3.9.5-7.31,1.55-1.76.83-1.33-1-1.09.44-.28-3,2.89-3,.48-.72A6.28,6.28,0,0,1,528,93.87l.33-1.27.19.5,2.14-1.61,2.9-.66,1.09.22,1.47-.72a8,8,0,0,0,2.09-1.66V87.18l-.66-1,.38-4.64-.38-.83.66-2-.28-3.09-.57-.56.85-1.49L537.89,72l.52-1.82-.52-1a12.64,12.64,0,0,1,1.85-3.38l-1-1.49,1-2.82a4.12,4.12,0,0,0-1.33-1.83l1.33-2.26-1.85-1.11.9-1.72-.38-2.15.38-2.82V48.13l1.14-1.61a17.82,17.82,0,0,1,.9-4.09l.67-.55-.86-2.82.57-1.83-1.47-.66-2.9,1-1.38,1.5a6.78,6.78,0,0,0-1.28,1h-.85l-.81-1.55a16.49,16.49,0,0,1-.95-3.31l.9-1.94a3,3,0,0,1,2.61-1.33v-.83l.67-.22.62-1h1a18.13,18.13,0,0,0,2.8-2.38l1.57-.22a11.16,11.16,0,0,1,2.42-1.61h1.37V26a7.91,7.91,0,0,1,3,1.28L550.23,26l6.46.23,1.14.22,3.71-3.6Z"/></svg>