<svg id="LOGO" xmlns="http://www.w3.org/2000/svg" viewBox="0 0 800 800"><defs><style>.cls-1{fill:#283782;}</style></defs><title>round 2</title><path class="cls-1" d="M451.51,263.64l-21,58.75c-.7,2.23-2.15,3.18-4.39,2.84H343l-30,80.32a98.67,98.67,0,0,0,10.84,10.7l28.66-78.66a3.58,3.58,0,0,1,3.86-2.83h83.7l22.48-60.42A101.3,101.3,0,0,0,451.51,263.64Z"/><path class="cls-1" d="M468.74,282.12,416.89,423.34a4.81,4.81,0,0,1-5.68,2.58c-2.75-.87-3.6-2.74-2.57-5.67L437,343.52H422.55l-22.14,60c-1.2,2.76-3.1,3.61-5.67,2.58-2.74-.86-3.61-2.74-2.59-5.68l21.13-56.89H359.45l-28.31,78.34a99.47,99.47,0,0,0,137.6-139.74Z"/><path class="cls-1" d="M364.09,254.92c2.57,1,3.43,2.83,2.57,5.42l-20.6,56.12h12.88v-.76l15.19-39.91q1.29-3.87,5.42-2.58c2.74,1.37,3.6,3.26,2.56,5.66L368,316.46h55.37l20.88-58.32A99.48,99.48,0,0,0,306.86,397.78L358.68,257.5C359.54,254.75,361.35,253.89,364.09,254.92Z"/></svg>