<svg id="LOGO" xmlns="http://www.w3.org/2000/svg" viewBox="0 0 611.03 170.45"><defs><style>.cls-1{fill:#fff;}</style></defs><title>Artboard 15</title><path class="cls-1" d="M91.2,15.26a13.06,13.06,0,0,0,3,1l.9,3.06L94,21.71l-3.32,9v1.06l-1.33.55-.19.78h-.72a7.69,7.69,0,0,1,.72,3.12l-.72.22-.19,3.39-1,1.5-.29,2.17-.61.22.19,1.84L86,46.78v2l-.38.56v1.84L85,53.06l5.32,1,.38.45,2.37-.34a2.75,2.75,0,0,0,1.23-.44l1.29-1,1.94.33,2.24-1.39a18.57,18.57,0,0,0,3.89-1.61l2.14.5v4.06l-1.57,2.78v1l-1.38-.23-1,.45-1.38-.22-1.33.77-.62-.55L97.51,60l-3.32.78-2,1.22H90l-2.61.83-.19-.55-1.57.55L84.55,64.9v7.95l-.48.78.72,1.83-.24,2.28L85,79.58v1.83l1,.78h2.23l1.76.55.29,2.06-1.57,1.5-.29,1.56-1.75,2.89-.38,1.78L85,93.81l-.43,1.61L81,97.92a7.93,7.93,0,0,1-1.14,1.75c-.32.32-.67.64-1,1l-.47.44-3.09,1.22.19-2,1.14-.83L77,97.92l.47-.5.38-1.22-1.28-1.39,1.09-5.89-.19-.84.38-1.78-.38-1,1-3.62-.67-3.55.29-1,.19-7.72.19-2.17-.19-.5v-1l-1-2.06V62.29l-2-.28v1.61l-2.85-.55h-.85l-2.71,1.22v.83l-2.66.56-1.33-.56-.19.56-.9-.33L60.66,66l-4.89,2.17-.57,1.17v8.39l-.67,1.61L58,80.91v2.28l.19,1.06-.85.77L57,87.3l.19,2.39.47.45a5.51,5.51,0,0,1-1.14,2.17H55.2V93l-.62.56a9.64,9.64,0,0,0-1.23,2.27H53l-1.1,1.34-2.42-.56H48.08l-1-1,.24-1.11a4.7,4.7,0,0,1,1-1.5l.19-2.56-.42-1.78.42-3.44-.19-2.06L49,80.36l-.19-2.62.19-.22V76l.66-1.78V73.18L49,71.85,49.64,69,48.5,67.74,47,67.51l-.66,1L45.65,68a3.1,3.1,0,0,1-1.94.78l-1,1.05L37,71h-.57l-.71,1L34,71l-1.52.83-.52-1.06.52-1.44-.52-.61.71-3.62,1.57-.83.38-.67,3.09-.78,1.56.45.48.55,1.94-1,1.76.23,1.38-.23,1.33.45.43-.78.66-.22.38.22.9-.5c.16.33.91.61,2.23.83l.67-1.39-.47-3.83a10.19,10.19,0,0,0,1.56-3.34l-.62-.22.91-1.61-.91-3.39.62-3.89-.43-4.06.72-1.06-.29-.78.67-1.83-.38-3.5-1.71.11a3.9,3.9,0,0,0-1.5.61,5.22,5.22,0,0,0-1.49,1.56l-.86-.28-.85.94a3.24,3.24,0,0,1-1,.78l-1.42.56.42,2.28-.9,2.66-.19-1.61a30.15,30.15,0,0,0-2.42,2.62l-.71-.56-1.71.67-.19.66L36.63,46v.78l-2.85-1-1.14-1.5V42.11l.86-2.84,2.23-2.83,1.75-.84,1.19-1A14.86,14.86,0,0,1,41,33.33l.47-.78,2-.45.48-.78H45l2-1.83H48.5l.48-.83h2l1.7-1.06A5.1,5.1,0,0,0,53.82,26l1-.11A5.15,5.15,0,0,0,56.48,25L56.67,24,58,23.76l.71-1h.67l1.28-1.83,2.42-1,2.23.22A15.88,15.88,0,0,0,67.55,23V25.6l-.48,1.06-2.42.44-.43,2.39L63,34.16l-1,4.89v1.56l-.85,1,.19,1.84-.67,1-1.57,8.56-.9,1.45L58,57.4l.52,1,1.71-.23,2.14.78,2.28-.55,5-.45h1.19l.38.45,3.09-.78.52-.5h1.71l2,.5,1.37-.95-.38-2.94,1.14-1.84-.57-1.72.72-2.61-.15-2.5.43-1.78-.43-1.62.43-1.39a6.27,6.27,0,0,1,1-1.78L81.18,37l1.14-3.05V32.1l-.48-2.61.48-.83-.48-.78L83.22,25l.38-.22L83.88,22l.67-.5L85,20.37l1.33-.66L89,17.09h1.52Z"/><path class="cls-1" d="M166.33,18.87l.33.34-3,4.55-.28.62L161.2,25.6,160,25a6.25,6.25,0,0,1-2.42,2.06l-.85-.22-.91,1.55-1,.5-1.66-1.27L152.65,26l-3.23.84-2.14-1.06-3.7.84H140a20.33,20.33,0,0,1-.95,5.11l.29.55-.57,3.9L138,39.05v2.17l-.47.56.28,1,7.7.72,3.89-1,3.33,1.06,1.85-2.5h2.9l.38,1,1.56.78V44.5l-.8.89a11.85,11.85,0,0,0-1.33,2.89l-2.52,2.06-1.66.89a5.68,5.68,0,0,1-2.43.44l-5.36-.78-2.71.56-2,.78-2.14-.34-1.19.34H136l-.38.22-.85,2.67-.57,2.28L133,59.79l-1.28,8.39-.86,8.89L130,79.35l-.14,6.23.9.72,3.42.56,1.42,1h2l1,.72,1.42-.5,1.47.61,4.37-.72,2.14.11.43-.44h2.23l1.95-.78,1.85.22.47-.44,4-1.39-.71-1.84.52-1.22a39.33,39.33,0,0,1,1.95-5.67l2.42.22,1.76-1.28h2.71A17.49,17.49,0,0,0,171,79.35l.38,3.06v1l-.85,1.39v1.06l-1.1.78v1.22a7,7,0,0,1-4.37,2.61l-.42,1a2.29,2.29,0,0,1-.76.94l-1.24,1-5.17.23-2.33,1.83h-3.52l-.85-.61-.71.61-.86-1.06-4.18,1.5h-2.13l-.67.78-2.66-.55-3.28,1.11-1.56-.34-1.19.78-2.71-.44-3.61.44-1.37-.44L125,99.48l-.85,1.28-.24.77a9.64,9.64,0,0,1-1.24,1.84v.56a10.64,10.64,0,0,0-1.56,2.5l-2.43,1-3,2.39-.86-2.61.57-1.83-.09-2.06,1.66-2.84,1.66-.83,1-3.06-2.42-.78-.57.56-1.19-1H111.1l-.67,1-2.94-.22-1.81-3.45V90.14h-.14l-.19-1.78,1.09-.5.38-1,2-2h2.24l2-.89a11.58,11.58,0,0,1,4.27,1.12l2.14-.89a8.69,8.69,0,0,1,3.7,1l.57-1.45-.28-1.39,1.76-11a28.47,28.47,0,0,1,1-4.23l-.28-1.5.85-2.06,1.48-10.56-1.67-3.22a12.3,12.3,0,0,1,2.43-3.28l-.38-2.62.57-.22,1-2.61L130,39.83l.76-1.84-1.09-1.77.61-2.06-.42-1.39V30.71l.71-1.22-.9-1.06V25.6l-3.38-.78h-.9l-6,1.67L116,25.82l-.9,1.61-1.86.23-1.56-3.28.61-1.39.67-.23.57-1.27,2.47-2.4h1.71l.9-2,.66.23a8.66,8.66,0,0,1,1.57-1.51h.86l1.28.45,2.9.22L129,16l1,.78v-.34l.57-.44,1.76.78.09-.56,3.18-.78-.47-.22a9.48,9.48,0,0,1,3.32-1.61L138,15.26l.72.44,3-.89.71,1,3.66.67.9.84.76-.23.38,1.23,3.61-1.23v.78l1.66.22,2-.77,4.85,1.11,4.32-4.56,1.14-.56h1.66l1.19.89.19,1.73L167,18.87Z"/><path class="cls-1" d="M222.18,7.75l2.23.34,1.09,2.05-.19,2.51c.1.48.18.89.26,1.25s.22,1.49.41,3.42l.38,1.33v2.06L227.45,22v.77L229,37.22h.47l.67,1h-1.52q.9,3.06,1.52,6.28l1.56.67,1.48-1.45,1.56.78h.67l.19.22.28-.22a4.84,4.84,0,0,0,1.95.44l2.42-2,3.8.27.19-.83,2.42.83,4.23-1.27.86-1A2.59,2.59,0,0,1,253,40l1.9-.73.86,1.62h1.56l.67,2.27a12.08,12.08,0,0,1-1.76,3.17l-.47-.33L252,50.67l-2,1.56h-4.66l-2.61.83-2.28-.61-4.56,2.28-.28-.22-2.8,1.39L233.48,68h.19v.55l-.66.84.66.67.19,2.61.48.55-.48,1.06.9,1.45.48,4.44.66,1.06.67-.28.24.72-.1.78h-.62l.19,6.51a18.51,18.51,0,0,1-1.75,2.83l-1.71.22-.52,1.62-1.24-.23.19,1.45-.76,1.11A14.28,14.28,0,0,1,227.93,98l-1.67-1.61a3.19,3.19,0,0,1-.66-1.22L225,93.59V90.47l-.9-4.89-.38-.78.38-3.17-.38-2.72.9-2.17-1.09-4.56a10.16,10.16,0,0,0,.57-2.83l-.38-.84.38-2.39a29.49,29.49,0,0,0-.57-4.11l.85-2.22-.28-3.67-1.43-1-1,.44v-.44l-2.13.22.19,1.56-1-.34-1.19.34-.28.22A8.47,8.47,0,0,1,213,58.4l-1.38-.23-2.8,1-2.95.62-.19,1.44-2-1v1h-.38l-1.38,1.61H199.9l.72,2.28-1.85-.44-2.85,2-.67.83L193.68,67l-1.75,1.55h-1.71V70l-1.76.33-.71,1.83-.86,1-1.18,3.56.33.33a8.08,8.08,0,0,1-1.57,2.06l-.19,3.06-1.38,1.22.19.61h-.66v1.23l-1.57,1.39v.44a11.81,11.81,0,0,0-1.09,2.06h-.38L178.25,93l-.43-.72v.44l-1.14,1.06-.28,1a3.89,3.89,0,0,1-1,1.56l-1.76-.78c-.19-.63-.34-1-.47-1l.19-.78v-.45l.28-1a12.56,12.56,0,0,1-.66-4.23l.66.39-.47-.61v-.78l.19-.22L173,85.47l.38-1-.48-1.28.29-.45c-.07-.81-.13-1.94-.19-3.39l.9-.83,2.61,2.39h1.57l5.51-8.06-.86-.67L182.9,71l-1.75.83-.29.56-.38-.23-1.09.67a5.5,5.5,0,0,1-2,.56L175.78,71q1.14-3.39,2-3.84a6,6,0,0,1,1.57-2.5l1.09-.39-.19-.22,1.76-2.84h.19l4.18-1,.47,1,.86-.22.19.22h.52l.38-1,1.38.22V60l1-1.06-.66-1.33.85-1.5,2.23-1-.19-.61.29-.84a6.67,6.67,0,0,1,1.47-1.78q.9-4.22,1.95-4.89h-.38l2.23-3.28.19.22,3.32-6.17h-.18l1.23-2.17h.28l2.66-5.67h.38l2.24-4.33.66-.22L210.92,23a14,14,0,0,0,.86-2.51l1.57-1.39v-.22l.85-2.61.52-.22.19-2.06h.67l.19-.78H216l.52-1.28,3.75-2.61Zm-7.46,16.63-1.57.44v.78l-1.56,1.83h-.48L209,31.05h-.19l-1.57,3.55v.56l-.57,1a2.22,2.22,0,0,1-.81,1l-1.33.88-.62,1.84a19.91,19.91,0,0,0-.47,3.89l-.86-.22-.18,1.44-1.76,1.62.19.22v1.28l-1.57.77L198,52.89a8.7,8.7,0,0,1-.72,1.84l-1.14,1.83.19.34v.22l.48.28h2.8l1.19.77,3.7-2.61,3.09-.22.19.78.28-1.39h1.76l3.14-1,.85.33,2-.78v-.22l2.94-1.17v-.22l3.66-1V49.39l-1.24-1.33V43.72l1.05-2.83-1.05-.84-1.37.84L218,38l2.47-.22V37l-2.95-.77.29-.84L217,34.16l.56-1.06L216,30.27l.28-.56.43-.22-.71-.83-.57-3.84Z"/><path class="cls-1" d="M289.9,14q2.57-.45,9,2.06l.85.83a3.38,3.38,0,0,0,1.38.78l-.29.67,3.8,3.39L306,24l-2.37,3.44-4.28,3.28-.57,2.06-.28-.45-1.57-.22-.85.22-.81-1.27a4.25,4.25,0,0,0-1.09-1.23l-1.62-1.16-.9-2.28h-.47l-.38-.78-1.1-.34a2.1,2.1,0,0,1-1-.61l-1-1.11-1.38.84-.57,1.44-2.28,3.45v2.5l-1.52,2.83-1.56,9.57.09,1.39-2.14,13.06c-.31,1.85-.54,3.41-.66,4.67l-.43.33.19.67-.76,1.06.19,1.61-.19,1.33-.47.67a9.24,9.24,0,0,0-.57,2.39l-.53,2.89-.85,2.06a26.82,26.82,0,0,0-.9,3.61L271.52,82l.38,1.44-1.38.61.38,1.84,5.09.44h1.56l1.52,1.34,7,.44-.71-.22,1.38-.22,3.32.22,1.52-.22,1.09.72,2.9.56,1.09-.84,2,.28H300l.85-.5,2.42.5-.38-1.5A10.72,10.72,0,0,1,304.86,84l4.66-3.66.71-.23,3.66-2,1.37.22A15.09,15.09,0,0,0,319,81.41l-.67,1.78a6.92,6.92,0,0,1-.9,1.67l-1.47,1.78-2,.66c-.35.52-1,1.67-1.91,3.45l-1.75.45-.52.77H309l-2,1.62-1.56-.23-.86.67-2.23-.44L300,95.42l-3.14-.28-.38.72-.9-.72-1.71.5-.33,1-2.42-1h-.57l-1.57,1h-2.42l-2.23.22h-2.43l-3.8.56-.9-.78-1.23.78-2.24-.56-8-.22-2.43-.44-.23-.78-.86,1-.66-.22-.91,1.44h-1.56l-.19-3-.67-.23-.85.45-2-1-2.75.55-1.95-.77-.19-.84h-1.33l-1.38-1-.57-3.67,1.95-.22,1-3.06,1.1-.39a17.34,17.34,0,0,0,2.7-2V82l2.9-.34L258.46,83c1.11.15,2.09.29,3,.44l.85.61h.48l.38.23h1.56l.91.22,1.33-1.73c.09-.92.33-2.33.71-4.22l.38-.44.85-4.23.19-4.89.71-.22,1.76-8.51-.24-5.5,1.38-2.28-.85-1.22.85-.34.67-2.06-.48-.44.9-6.06a2.62,2.62,0,0,0-.71-1.22V39.83l.52-.33.19-5.34.86-1.84-.19-2.61.66-.44L276,25l.66-.22.57-2.06,3.14-2.83,2.42-1.84h.47l.43-.77,1.71-.23L287,15.26l.9-.22-.43-.62Z"/><path class="cls-1" d="M385.55,14.7l3.32-2.28,1.95-.39-.19,3.45-1.85,2.84-3.14,1.83-.57,1.45L382,23.21l-.52,1.05L379,25.38l-3.42.44-1.52.45-1.09-1-1.33.56.47-1.83-2.23-.34-.71.34-1.24-.56-1.37.56-.86-.56-1.38.56a24.79,24.79,0,0,1-1.37,3.55L362,29.38l-.38,3.39-2.94,7.5-.19.84-1,1.61a5,5,0,0,0-.57,2.67v2.67l-.66,2-1.1,2-.85,3.9.66,1.61-.66,3.61-.48,1.06.29,1.22-.67.78.38.5-.38,2.61.19.78L353,70.57,352.88,73l-1.05,3.56-.62,4.28-2.89,7.28v.84l.66,1.22-1.33,1.39a5.53,5.53,0,0,1-1.76.67v.22l-2.61,2.39-1.38-.22-.38-1.34-2,.34-1.56-1.17,1.14-3.28.61-.22,2.23-4.23a4.27,4.27,0,0,1,1.57-2.83l.19-2.84.57-3.67,1.19-3.28L346.65,68l-.76-3.17.48-2.89.9-3.28a18.39,18.39,0,0,1,.78-4.36,6.76,6.76,0,0,1,1-1.92l-.95-1.23.66-1.27-.38-1A9.81,9.81,0,0,1,350,45.39V44.17l1-.56-.19-1.83-.47.55L351,40.5l-.47-1,1-3.67-1-1v-.45l1-.83V32.21l-.72-.66.72-1.39L353,24.82l-1.42.22-7.13,1.84L342,26.49l-.86,1.05-2.08.56.33,2.06-2.95,2.39-1.56,1.83-.67-.33-.85.89a5.43,5.43,0,0,0-.91,1.94l-2.42.78-.38,1.06-.66-.23-.9-1.83-2.62-2.61-1.18-3.89.28-1h1.28A15.69,15.69,0,0,1,329,25.82l.66-2.17,2.42-.66v-.78l1.57-.22.38-1.17,3.33-.22,1.33-.23,1.09.45.47-1,2.42.33.91-.33h1.52l-.29-.23,1.38-.83,1.57.33H350l.85-1.11.91.34,3.08-.34.19-.66h.91l.85.66h1.09l.29.34,2.42-.56,2.8-1.06.71.84,2.24-.22,1.75.44,2.8,1-.19-.44,1.76-1.84,3.33.45a16,16,0,0,1,4.46-1l1.95.33Z"/><path class="cls-1" d="M442.3,15.26a13.06,13.06,0,0,0,3,1l.91,3.06-1.1,2.39-3.32,9v1.06l-1.33.55-.19.78h-.71a7.9,7.9,0,0,1,.71,3.12l-.71.22-.19,3.39-1.05,1.5L438,43.5l-.62.22.19,1.84-.48,1.22v2l-.38.56v1.84l-.66,1.83,5.32,1,.38.45,2.37-.34a2.84,2.84,0,0,0,1.24-.44l1.28-1,1.95.33,2.23-1.39a18.11,18.11,0,0,0,3.89-1.61l2.14.5v4.06l-1.57,2.78v1l-1.37-.23-1.05.45-1.38-.22-1.33.77-.61-.55L448.62,60l-3.33.78L443.35,62h-2.24l-2.61.83-.19-.55-1.57.55-1.09,2.06v7.95l-.47.78.71,1.83-.24,2.28.43,1.84v1.83l1,.78h2.24l1.75.55.29,2.06-1.57,1.5-.28,1.56-1.76,2.89-.38,1.78-1.33,1.28-.43,1.61-3.56,2.5A7.27,7.27,0,0,1,431,99.67c-.32.32-.66.64-1,1l-.48.44-3.09,1.22.19-2,1.14-.83.43-1.56.48-.5L429,96.2l-1.29-1.39,1.1-5.89-.19-.84L429,86.3l-.38-1,1-3.62L429,78.08l.28-1,.19-7.72.19-2.17-.19-.5v-1l-1-2.06V62.29L426.34,62v1.61l-2.85-.55h-.85l-2.71,1.22v.83l-2.66.56-1.33-.56-.19.56-.9-.33-3.09.66-4.89,2.17-.57,1.17v8.39l-.66,1.61,3.46,1.56v2.28l.2,1.06-.86.77-.38,2.28.19,2.39.47.45a5.38,5.38,0,0,1-1.13,2.17H406.3V93l-.61.56a9.47,9.47,0,0,0-1.24,2.27h-.38L403,97.2l-2.42-.56h-1.38l-1.05-1,.24-1.11a4.79,4.79,0,0,1,1.05-1.5l.19-2.56-.43-1.78.43-3.44-.19-2.06.66-2.83-.19-2.62.19-.22V76l.67-1.78V73.18l-.67-1.33.67-2.89-1.14-1.22-1.48-.23-.66,1-.71-.55a3.1,3.1,0,0,1-1.95.78l-.95,1.05L388.11,71h-.57l-.71,1-1.76-1-1.52.83L383,70.79l.52-1.44-.52-.61.71-3.62,1.57-.83.38-.67,3.09-.78,1.57.45.47.55,1.95-1,1.75.23,1.38-.23,1.33.45.43-.78.66-.22.38.22.91-.5c.15.33.9.61,2.23.83l.66-1.39L402,57.62a10.24,10.24,0,0,0,1.57-3.34l-.62-.22.9-1.61-.9-3.39.62-3.89-.43-4.06.71-1.06-.28-.78.66-1.83-.38-3.5-1.71.11a3.92,3.92,0,0,0-1.49.61,5.12,5.12,0,0,0-1.5,1.56l-.86-.28-.85.94a3.32,3.32,0,0,1-1,.78l-1.43.56.43,2.28-.91,2.66-.18-1.61a28.76,28.76,0,0,0-2.43,2.62l-.71-.56-1.71.67-.19.66L387.73,46v.78l-2.85-1-1.14-1.5V42.11l.86-2.84,2.23-2.83,1.76-.84,1.19-1a14.62,14.62,0,0,1,2.32-1.27l.48-.78,1.94-.45.48-.78h1.09l2-1.83h1.48l.47-.83H402l1.71-1.06A5.27,5.27,0,0,0,404.93,26l1-.11a5.16,5.16,0,0,0,1.62-.89l.18-1.05,1.33-.23.72-1h.66l1.28-1.83,2.43-1,2.23.22A15.41,15.41,0,0,0,418.65,23V25.6l-.47,1.06-2.43.44-.42,2.39-1.24,4.67-1,4.89v1.56l-.85,1,.19,1.84-.67,1-1.56,8.56-.9,1.45-.2,2.89.53,1,1.71-.23,2.13.78,2.28-.55,5-.45H422l.38.45,3.09-.78.52-.5h1.71l1.95.5,1.38-.95-.38-2.94,1.14-1.84-.57-1.72.71-2.61-.14-2.5.43-1.78-.43-1.62.43-1.39a6,6,0,0,1,1-1.78l-1-1.5,1.14-3.05V32.1L433,29.49l.47-.83-.47-.78L434.32,25l.38-.22L435,22l.66-.5.43-1.12,1.33-.66,2.66-2.62h1.52Z"/><path class="cls-1" d="M535.86,7.48l.38.27h1.14l4.37,3.62,3.13,3.89-5.27,4.45-.66,1-3.61,1-1.76-.22-1.52-1.34h-.9l-4,9.56-1.76,2.39-.19,2.5L523.7,38,523,40.61l-.85,1.5-.38,3.67-.62,1.94a8,8,0,0,1-1.24,1.67v1.28l-.61,2.39.42,1.45a18.71,18.71,0,0,1-1.28,3.66l.19,2.06L518,62.84l.47.45v1.39l.86,1-.48,1.83.48,4.12H519l-.19,3.05c0,.6.68,1.8,2,3.62l-.47.83.85,1.23.53,5.22-1.19,1.28v1.5l-.67,1.78h-.61l-2,3.45-1.71-.23L514,95.53l-2.85,2.39-2.05-4.33V89.14l-.66-3.89.28-1.84L506,78.8l.66-1.28L506,76l.47-.56-1.75-.78-.67.56a9.11,9.11,0,0,0-1.76-2.95h-.66L500.53,68l-2-2.17-1-2.5a7.9,7.9,0,0,1-.9-2.61l-2.61-2.84-.67-1.61.19-1.28-.71-1.22-.67-.34-.57-1.72H491l-.66-2.17-1.38-2.11a6,6,0,0,1-.57-2l-1.14.28L486,48.83v1a37.21,37.21,0,0,1-1.1,4.89l-1,.61.48,1.78,1.09.83-.43,2.5v2.84l-2.23,3.17.19,2.28-.57,1.61.57,1.72-.38.56.19,1.61L482,76.52v1.56l-.86,1.27-.71,3.39V83.8l-.38.45-2.23,8.06-.67,1.5-1.75,1,.19.61L472,97.2l-1.76-.56-.47-2L471,93l-.53-.72h-1.33v-.56l1.52-1.61-.38-2.06,1.57-.44L474,84.25l.66-3.06V79.91l1.1-1.39V76.24l2.89-13.95-.19-.84V59.17l1.28-2.27-.37-1.56,1-2.06.19-1.39.52-2-.24-1,.72-3-1.86-5.51a4.55,4.55,0,0,1,1.38-1.44l-.71-2.89.47-1.78.91-.22.19-1.62h-4l-4,1.62-.86-.61L471,38.49l-5.56,6L462.49,46l-1.24-2.84v-2l1.05-.5-.19-1.11-.67-.23V38l1.05-1V35.94l1.75.72.48-.72-.67-.78a20.09,20.09,0,0,1,2.05-3.06l2.42-.78.19-1.83,1.09.22.9-1.17a3,3,0,0,1,1-.66l1.9-.78.19-.44,1.33-.17a2.65,2.65,0,0,0,1.42-.67,7.09,7.09,0,0,1,2.95-1l2.28-.44,5.32-3.56,1.28-1.61L491.08,18l2.37-.33,1.23,3c-.91,1.89-1.29,3.26-1.13,4.11l1.42,9,.71,2.12v1.5h1.24l.19,2.28,2,2-.19,1.5.43.56,3.75,7.51,4,9.22,1.09,1.34v.72l.85,1.11,1.38.22.19-1.33.67-.22v-.84l1.75-6.72.15-1.61a21.62,21.62,0,0,1,.95-3.51L516,48.06V46.78l1-2.06V43.16a11.35,11.35,0,0,0,1.57-4.11,2.67,2.67,0,0,0,.81-.89l.47-.72,2.71-8.51a4.07,4.07,0,0,1,.95-1.61l.62-2.94.85-.84,1.09-2.39.67-2.28.85-1.22a7.19,7.19,0,0,0,.91-2.17l.85-.22,2.47-5.39,1-1.12h.47c.38-.66.68-1,.9-1Z"/><path class="cls-1" d="M577.89,14.42l.85.39.19,2.28,2.05.78v.78l-1.38,1.06-.38,1.44a23.13,23.13,0,0,0-6,3.67,9.8,9.8,0,0,1-2.42,2.61L565,30.71l.71,1.06-1.38,3.39a16.51,16.51,0,0,1-.85,3.61l-.62,1.84L561,50.67l-1.23,9.56-.72-.22v7.5h-.47l.47,1.23L558.89,70l.62,8.78-.24.78.91,1,4.65-.45,1.14.5a6.94,6.94,0,0,1,1.71,1q-2.48,4.17-3.51,4.23l-.38,1-1.38-.22L561,88.92l-1,.22-.62.94a13.07,13.07,0,0,1-2,1.67l-1.18-.22-2.43,1-3.89.5-7.31,1.56-1.76.83-1.33-1.06-1.09.45-.29-3.06,2.9-3.06.47-.72a6.48,6.48,0,0,1,1.48-1.11l.33-1.28.19.5,2.14-1.61,2.89-.67,1.1.22,1.47-.72a8.23,8.23,0,0,0,2.09-1.67v-1.5l-.67-1,.38-4.67-.38-.83.67-2-.29-3.12-.57-.55.86-1.5-.29-1.56.52-1.83L552.86,62a13,13,0,0,1,1.85-3.39l-1-1.5,1-2.84a4,4,0,0,0-1.33-1.83l1.33-2.28-1.85-1.11.9-1.73-.38-2.16.38-2.84V40.89l1.14-1.62a18.36,18.36,0,0,1,.91-4.11l.66-.56-.85-2.83.57-1.84-1.48-.66-2.89,1-1.38,1.5a6.45,6.45,0,0,0-1.28,1h-.86l-.8-1.56a16.15,16.15,0,0,1-1-3.33l.9-1.95a3,3,0,0,1,2.61-1.33v-.84l.66-.22.62-1h.95a17.24,17.24,0,0,0,2.8-2.39l1.57-.22a11,11,0,0,1,2.42-1.61h1.38v.33a7.81,7.81,0,0,1,3,1.28l1.71-1.28,6.46.22,1.14.22,3.7-3.61Z"/><path class="cls-1" d="M182.91,123.64a4.59,4.59,0,0,0,.92.31l.28.94-.34.73-1,2.77v.32l-.41.17-.06.24h-.22a2.31,2.31,0,0,1,.22,1l-.22.07-.06,1-.32.46-.08.67-.2.07.06.56-.14.38V134l-.12.17v.57l-.2.56,1.63.31.12.13.73-.1a.86.86,0,0,0,.38-.14l.39-.3.6.1.69-.43a5.64,5.64,0,0,0,1.19-.49l.66.15v1.25l-.48.85v.31l-.42-.07-.33.14-.42-.07-.41.24-.19-.17-.29.43-1,.23-.6.38h-.69l-.8.26-.06-.17-.48.17-.34.63v2.44l-.14.24.22.57-.08.7.14.56V144l.32.24H182l.54.17.09.64-.48.46-.09.48-.54.89-.12.54-.4.4-.14.49-1.09.77a2.51,2.51,0,0,1-.35.54l-.32.3L179,150l-.95.38.06-.62.35-.25.13-.48.15-.15.12-.38-.4-.43.34-1.81-.06-.25.12-.55-.12-.33L179,144l-.2-1.09.08-.31.06-2.37.06-.67-.06-.15v-.31l-.32-.63v-.41L178,138v.5l-.87-.18h-.27l-.83.38V139l-.82.17-.4-.17-.06.17-.28-.1-.95.2-1.5.67-.18.36v2.58l-.2.49,1.06.48v.7l.06.33-.26.24-.12.7.06.73.15.14a1.66,1.66,0,0,1-.35.66h-.4v.23l-.19.17a3.13,3.13,0,0,0-.38.7h-.11l-.34.41-.74-.17h-.43l-.32-.31.07-.34a1.52,1.52,0,0,1,.32-.46l.06-.79-.13-.55.13-1.06-.06-.63.21-.87-.06-.8.06-.07v-.46l.2-.55v-.32l-.2-.42.2-.88-.35-.38-.45-.07-.2.31-.22-.17a1,1,0,0,1-.6.24l-.29.32-1.77.38h-.17l-.22.32-.54-.32-.47.25-.16-.32.16-.44-.16-.19.22-1.11.48-.26.12-.2.94-.24.49.13.14.17.6-.3.54.06.42-.06.41.13.13-.24.21-.06.12.06.27-.15c.05.1.28.19.69.26l.2-.43-.14-1.18a3.17,3.17,0,0,0,.48-1l-.19-.06.28-.5-.28-1,.19-1.2-.13-1.25.22-.32L171,131l.2-.56-.11-1.08-.53,0a1.45,1.45,0,0,0-.46.19,1.64,1.64,0,0,0-.46.48l-.26-.09-.26.3a1.15,1.15,0,0,1-.33.24l-.43.17.13.7-.28.82-.06-.5a9.35,9.35,0,0,0-.74.8l-.22-.17-.53.21,0,.2-.49.33v.24l-.87-.31-.35-.46v-.67l.26-.87.69-.87.54-.26.36-.31a4.83,4.83,0,0,1,.72-.39l.14-.24.6-.13.15-.24h.33l.63-.57h.45l.15-.25h.6l.52-.33a1.53,1.53,0,0,0,.37-.48l.32,0a1.56,1.56,0,0,0,.5-.27l0-.33.41-.07.22-.3h.21l.39-.57.75-.31.68.07a4.81,4.81,0,0,0,.69.87v.81l-.15.32-.74.14-.13.73-.38,1.44-.31,1.5v.48l-.26.33.06.56-.21.31-.48,2.63-.28.44-.06.89.16.31.53-.07.66.24.7-.17,1.55-.14h.36l.12.14.95-.24.16-.15h.52l.6.15.42-.29-.11-.91.35-.56-.18-.53.22-.8,0-.77.13-.55-.13-.49.13-.43a1.74,1.74,0,0,1,.32-.55l-.29-.46.35-.94v-.56L180,128l.15-.25-.15-.24.43-.87.11-.07.09-.87.2-.16.14-.34.4-.21.82-.8h.47Z"/><path class="cls-1" d="M195.25,131.58l.36.07h.06l-.06.17h.12l.2.24.69.07h.68l.4.26h.15l.21.87-.3.31v.32l.48.57-.06,1.57H198l-.08.31h-.05v.49l.27.07.12.17-.18.33v.23l-.36.21-.26.26-.76.47a5.27,5.27,0,0,1-.53.57l-.22.7-1.28.6-1.29,0,.06.38h-.26l-.06.1-.63.15-.06-.25-.22.1V141l-.54.24-.2.71.28.87v.42l.14.38c-.19.67-.33,1-.42,1.06l.09.31-.15.07.34.17v.53l.29.24a5,5,0,0,0,.89-.38l.22.24.06-.07a5.32,5.32,0,0,0,.95-.17l.1-.21h.35l.28,0,.35.2-.09-.13h.29l.37-.36.42,0h-.09l.41-.21.12.1.22-.24h.29l.28-.32a2.64,2.64,0,0,0,1-.45v-.18l.43-.14.45-.77.48.07a1,1,0,0,0,.58.32l.22.24-.33.74.06.46-.47.31-.06.17-.7.1-.38.46-.42,0-.12.39-.57-.07-.17.48-.46-.07-.17.24a2.29,2.29,0,0,0-.51.26l-.21-.14-.33.38h-.49l-.29.17h-.17l-.22.22a2.94,2.94,0,0,0-.78.38l-.2-.18h-.42L193,148l-.16-.07-.2.07-.06-.07-.15.39h-.39l-.32.2a2,2,0,0,1-.7.18l-.15.17h-.26l-.4.06-.29.43-.39-.17-.21.31-.16-.05a4.9,4.9,0,0,1-.58-.65l.06-.41-.06-.22.06-.41-.22-.64.08-.49-.14-.77.14-.63-.2-1-.06-.07.06-.49.48-.21v-.34l-.2-.08.06-.45-.14-.25.08-.41.2-.14-.06-.39.06-.67.12-.07.2-.8.49-1,.42-.19.06-.55-.06-.15.06-.31.26-.17.16-.56h-.36v-.21l.14-.25-.06-.24.06-.24h.06v-.57l.48-.06.21-.5,1-1.33h.2a1.87,1.87,0,0,1,.45-.55l.21.07a1.31,1.31,0,0,0,.48-.57h.15l.27-.2H194l.21-.36Zm-.35,2.91-.51.21-.4-.21a3.27,3.27,0,0,1-.57.48,1.36,1.36,0,0,1-.3.75c-.17.21-.29.31-.36.31h-.26l.18.37c-.11.23-.25.59-.43,1.06l-.23-.06-.09.44.09.63.29.19a2.79,2.79,0,0,0,.73.2l.47-.35,1-.11.51-.87.69-.67.09-1.26-.24-.41,0-.6h-.33Z"/><path class="cls-1" d="M212.72,130.39a2.07,2.07,0,0,1,.57,0,1,1,0,0,1,.6.24l.5-.13.27,0,.21.46,0,.34a1.35,1.35,0,0,0-.4.6h-.14l-.16.21a2.58,2.58,0,0,1-.61.29l0,3.17.23,1.65,0,1.69L214,141l.92,2.94a2.76,2.76,0,0,1,.33.52,2.84,2.84,0,0,1,.92-.48q.6-.81.78-.84V143l1.65-1.64,0-.31c.1,0,.31-.24.62-.66l.54.14.3.76-.12.67-.29-.14-.15.38h-.28a1.93,1.93,0,0,1-.48.84v.19l-.8.87-.15.44a6.94,6.94,0,0,1-.93.6l-.12.26,0-.09-.17.36-.4.14-.05.24h-.21l.09.25-.24.53-.21.07a2.08,2.08,0,0,1-.49,1l-.68,0-.15.5-.42.13a1.35,1.35,0,0,1-.78-.7L212,146l-.94-2.44.09-.91-.21-.8.15,0a4.3,4.3,0,0,1-.42-1.5l.07-.63-.45-.33-.31.23v-.09l-.14.09-.4,1.17-.2-.1-.06.24-.15-.07V141H209a6.78,6.78,0,0,1-.42.87l-.12-.07-.08.73-.31.19a.94.94,0,0,0-.4.45l-.11.34.13.2-.34.14-.14.7-.25.16.07.13a2.41,2.41,0,0,1-.57.41l-.13.26-.12-.19-.2.6h-.17l-.25,1-.27.1,0,.51h-.42l-.42,1.13-.21.17h-.17l-.06.33-.93.41-1,0-.43-3.24.18-.43,0-.34a9,9,0,0,1,.35-1l-.05-.24a5.74,5.74,0,0,1,.35-.83l-.12-.07.28-.84v-.33a3.1,3.1,0,0,1,.22-.63,2.7,2.7,0,0,0-.23-.94l.11-.24.38.07a2.15,2.15,0,0,1,.43-.56l.08-.31h.06l-.2-.36.17-.91.12.07c.12-.35.19-.53.22-.53l-.06-.44.41-.89v-.24l-.09-.2.6-1.51.69-1.09a3.85,3.85,0,0,0,.59-.8l.52-.24.68-.84.66-.46h.39l.33-.11h.45l.2-.39.43,0h.42v-.14a.79.79,0,0,1,.38.17l.45-.2.34.1.08-.14.35.14Zm-3.76,2.7-.37.07-.45,0-.15.31v.26a3,3,0,0,1-.51.24l-.26.77a6,6,0,0,1-.25,1h-.15l-.2.56-.1.48a.53.53,0,0,1-.3.36l-.14.6-.23.51a1.43,1.43,0,0,0-.14.61V139l-.14-.14v.28h-.09l0,.17-.12.29-.17.91-.31.73-.06,1-.09.16h0l-.06.3.11.14-.14.63h-.06l.06.21h-.22l0,1.26.13.6h.06l.32-.36.85-1.4,1.52-2.34.45-.56,1-1.92,1-1.64.08-.36-.2-.31.38-.76.09-.59a2.05,2.05,0,0,1,.25-.44l0-1.37-.39,0h-.32l-.42-.34-.09.17Z"/><path class="cls-1" d="M230,142.74c-.07,0-.11.19-.11.57-.14.18-.27.36-.39.55a1.38,1.38,0,0,1-.36.39l-.22-.07a.87.87,0,0,0-.26.5s-.07.06-.14.06-.11-.06-.14-.18c-.11.28-.27.42-.46.42v.17h-.14l-.14-.1a.63.63,0,0,0-.26.5h-.22l.06-.11h-.12v.17l-.21.31h-.26V146h-.16v.12l-.26.07v.07l-.12-.07-.06.14-.1-.14-.6.38.07.06h-.13c0,.22-.15.33-.35.33q-.09.24-.27.24l-.06.1a.75.75,0,0,0-.61.41c-.18.27-.33.43-.46.46l-.1-.17-.06.17.16.07h-.22v.09a1.61,1.61,0,0,0-.68.54.67.67,0,0,1-.43-.31l-.86-2a.32.32,0,0,0,.12-.28,1.31,1.31,0,0,0-.12-.53h.06l-.26-.87h.14l-.14-.2.06-.12s.08,0,.08-.11v-.1l.12.07v-.17l.06-.24.31-.15-.09-.07a2.67,2.67,0,0,0,.23-1A2.38,2.38,0,0,1,222,142l-.15-.3v-.43l.15-.57.06.11a3.06,3.06,0,0,0,.22-.64.43.43,0,0,1,0-.2,1,1,0,0,1,0-.21l.28-.32-.09-.38.2-.3v-.12l.09.12v-.33l-.09-.1h.09l.19-.63v-.07l.09.07.12-1h.06l.3-1.06-.1.07.48-1.51h-.06l.48-.77v-.41l.12-.39c-.08,0-.16-.12-.26-.31l.41-.8v-.82l-.27-.2a.83.83,0,0,1,.12-.31,1.38,1.38,0,0,0-.12-.36l-.68-1.18-.12-.07a.63.63,0,0,0-.42.17H223a.58.58,0,0,1-.54-.43l.15-.56-.06-.2.39-.31-.06-.1a1,1,0,0,0,.67-.52,5.87,5.87,0,0,1,.34-.61.67.67,0,0,0,.33-.07.51.51,0,0,0,.21-.2l.15-.26h.22l.26-.48v-.19l.2-.2c.13,0,.22-.11.28-.31l-.09-.19.15.09.2-.16a.61.61,0,0,1,.29-.37,5.54,5.54,0,0,0,.59-.36c0-.14.15-.24.35-.31V123l.34-.07v-.1l1.06-.7V122a.4.4,0,0,1,.37-.25q.39,0,.39.9V123h-.06v.24a1.22,1.22,0,0,1-.54,1.13.57.57,0,0,1-.2.39,4.26,4.26,0,0,0-.48.61H228a1,1,0,0,0-.28.74,4.48,4.48,0,0,1-.2,1l-.06-.09.06.32h-.06l0,.07.11.14a.63.63,0,0,0-.17.38c0,.15,0,.22-.06.22h0l-.27.39a.58.58,0,0,1,.27.45c0,.09-.06.14-.18.17v.18l-.09-.06v.87h-.26l-.13.51.07.5-.16.39v.1h-.12l.06.38-.11-.07-.21,1.5-.42,1.58-.12.63a.91.91,0,0,0-.22.49,3.58,3.58,0,0,0,.07.5,8.27,8.27,0,0,0-.59,2.44l-.16.07-.06.1a1.47,1.47,0,0,1-.15.53l-.06,1.54.15.53-.09,1,.42,1a.32.32,0,0,0-.33.24h-.09l.26.31-.05.25h.16l.26.31.26-.31.34-.17a2.19,2.19,0,0,0,.42-.39h.32v-.14l.06.07a1.33,1.33,0,0,1,.91-.56l-.06-.07.46-.17v-.14a1,1,0,0,0,.66-.5.88.88,0,0,0,.7-.46h.12l.41-.34Z"/><path class="cls-1" d="M241.24,127.09a3.26,3.26,0,0,1-.49,1.26v.33l-.32.87v.56l-.42,1.18v.17c0,.27.07.4.22.4l.47-.17a1.46,1.46,0,0,0,.75.3h.66a5.33,5.33,0,0,1,1.37-.27,8.4,8.4,0,0,1,1.17.1v.11l.54.06.5.71-.47.7-.84.13-.84.53-.32.07a1.32,1.32,0,0,0-.48.29l-.91-.12c-.05.1-.32.17-.8.19l-1.5.07a5.07,5.07,0,0,0-.86.8l.05.87-.2.4-.12,1.24-.36.57-.06,1.5-.37.24-.05.43.22.87-.28,3.16.6,2.72.68-.34a.73.73,0,0,1,.75-.46h.27a2.07,2.07,0,0,0,1.09-.95l.68-.23-.09-.09.21-.31a1.32,1.32,0,0,0,.35-.42l.42-.18.12-.3c.14,0,.22-.09.22-.26a2.08,2.08,0,0,1,1.28-.87.36.36,0,0,1,.21.32,4.8,4.8,0,0,1-.27,1.17,2.5,2.5,0,0,1-.68,1.21l-.82.67-.25.39a.83.83,0,0,1-.33.34l-.53.27-.41.14-.87.92-.53.07-.67.63-.28.33a.91.91,0,0,1-.3.19l-1.86.85-.42.07-.34.31-.68-.53-.21-1-.22-.55c-.06-.17-.25-1.39-.58-3.66a3.89,3.89,0,0,1,.26-.6v-.59l.37-.18.43-1.43-.14-.48a2.13,2.13,0,0,0,.66-.2.24.24,0,0,0,0-.16,2.29,2.29,0,0,0-.14-.41l.48-1.69.14-1.5.66-2.07a1.65,1.65,0,0,0-1.14-1.18l-.57.41h-.17a1.17,1.17,0,0,1-.61-.12l-.19-.12a.63.63,0,0,0-.34.17c-.09.24-.2.36-.35.36h-.06a.73.73,0,0,1-.25,0,3.75,3.75,0,0,1-.57-.07,6.51,6.51,0,0,1-.29-1.16,2.87,2.87,0,0,1,.21-.77c.14-.37.29-.56.45-.56l.2,0,.43-.13a2.22,2.22,0,0,1,.57-.14h.08a.42.42,0,0,0,.18,0,.49.49,0,0,0,.25-.06.46.46,0,0,1,.26-.07.35.35,0,0,1,.26.07l.54-.33h.16a1,1,0,0,0,.4-.07c.11,0,.26-.28.44-.7l.32.07a3.88,3.88,0,0,1,.36-1c.18,0,.26-.17.26-.49v-.21l-.08.14a10.35,10.35,0,0,1,.36-1l-.09-.67.63-1.4a1.1,1.1,0,0,1,.69-.56,3.3,3.3,0,0,1,1-1,2.34,2.34,0,0,1,.9-.5.6.6,0,0,1,.63.53l-.42,1Z"/><path class="cls-1" d="M254.9,119.19l.22-.18.32.25.28-.07.2.31.43-.14a.51.51,0,0,1,.46.38l.54,1.2c0,.62-.15.94-.46.94h-.16l-.66.89.06.17-.15-.11a.62.62,0,0,1-.6.41v.14a4.31,4.31,0,0,0-1.63-1.11l-.19.17-.09-.17a3,3,0,0,0-.39.87.38.38,0,0,0-.15.28.61.61,0,0,0,.06.22,2.51,2.51,0,0,0-.32.48v.56a4.6,4.6,0,0,1-.28.94h-.06a3.87,3.87,0,0,0-.2,1.2q-.18.06-.18.39a.7.7,0,0,0,0,.24,2.54,2.54,0,0,1-.19.7h-.09a5.74,5.74,0,0,0-.26.67l-.06-.11v.17a6.7,6.7,0,0,0-.42,1.34l-.18,1v.8l.06.16a1.11,1.11,0,0,1-.2.3l-.08-.06-.14.37v.74l-.26.56v.94l-.12.63v.74l-.37,1.83,0,1.26c-.08,0-.12,0-.12.1s0,.11.12.14l-.06.56a.51.51,0,0,0,.48.38l.06-.24.54-.87h.06v-.15a6.17,6.17,0,0,0,.52-.88c.21-.39.4-.61.57-.63l.28-.48.12.07a1.44,1.44,0,0,0,.2-.39l.06.07.1-.38.12.07.11-.34a.76.76,0,0,1,.19-.28l.38-.39.87-.49-.06-.07,1.28-1.06.63-.38a1.18,1.18,0,0,1,.39-.25l.49.32.46.07.16.1s.08.09.12.21a1.56,1.56,0,0,1,.06.18v.38l.36.87-.1.74.31.7.06.89.2,1.11-.47.63.06.31a1.68,1.68,0,0,1,.8,1.5l-.11.56.26.81-.06.8.12,1.09-.15.21-.11.14a3,3,0,0,0,.68.53,1.17,1.17,0,0,1,.34-.38,2.61,2.61,0,0,0,.47-.5h.27l.09-.17.15-.06v-.19l.39-.34a2.47,2.47,0,0,0,.42-.33l.5-.44a.68.68,0,0,0,.38-.26,2.16,2.16,0,0,1,.31-.31l.42,0,.06-.24.77.27-.06.31.06.63a1.54,1.54,0,0,0-.54.89l-.06-.08-.14.32-.26.17-.06.21a5.05,5.05,0,0,1-.88.18v.14a1.71,1.71,0,0,1-.69.27l-.08.53-.31.21a1,1,0,0,1-.77.36c-.22.45-.44.69-.66.7l-.42.55-.53.08v.14a3.44,3.44,0,0,0-.88.31l-.05.17-.15-.07q-.09.39-.69.39c-.16,0-.34-.17-.53-.51a2.18,2.18,0,0,1-.28-.62V148c-.08-.78-.12-1.31-.12-1.61l0-.17-.12-.46v-.87l-.38-.64.06-.56-.16-2,.31-1.25-.63-.87a2,2,0,0,1-.34-1.26h-.06a.92.92,0,0,0,.12-.36c0-.3-.17-.47-.52-.51l-.43.23h-.27l-.06.31-.06-.1q0,.78-.57.87v.12c-.29.21-.44.41-.44.62l0,.22a.43.43,0,0,1,0,.17l-.22.07-.2.56-.21.17a1.27,1.27,0,0,1-.54.94,1.26,1.26,0,0,1-.48.81,3,3,0,0,1-.6,1.12l-.2.94.41.4-.47.56h-.1l-.18.62v.56l-.14.26-.12.37a.88.88,0,0,1-.2.29l-.43.45-.16-.11-.12.43h-.14a.55.55,0,0,1-.54.38l-.06.56h-.26l-.28.38-.41-.07a2.65,2.65,0,0,1-.28.39l-.26-.46a.57.57,0,0,0,.2-.44.92.92,0,0,0-.14-.43.23.23,0,0,0,.12-.19c0-.09.06-.32.14-.68h-.06a1.05,1.05,0,0,0,.12-.46,1.4,1.4,0,0,0-.06-.41h.09a4.08,4.08,0,0,1,.28-1.44,1,1,0,0,1-.09-.36l.09-.53v-.24l.2-.77h.06v-.17l.22-1.13.06.11-.06-.55.11-.36.27-.2-.27-.5.27-1.18v-.32a.28.28,0,0,0,.14-.24l-.05-.33v-.07h.13l-.08-.94v-.23l.08-.19h-.08l.08-.62a2.78,2.78,0,0,0,.24-.69c0-.27.08-.41.08-.44V135l.26-.41a.21.21,0,0,0,.19-.22,2.68,2.68,0,0,0-.25-.87l.28-.74v-.63l.2-.7.06.09.09-.64.1-.35,0-.14a1.18,1.18,0,0,1,.22-.57h-.09a.36.36,0,0,1,.09-.24l-.09-.06a1.23,1.23,0,0,0,.2-.5v-.14h.09a1.16,1.16,0,0,1,.18-.56l.22-.07v-.41a5.24,5.24,0,0,0,.11-.92v-.56a1,1,0,0,1,.09-.41l.15-.07v-.67l.16-.53a1.46,1.46,0,0,0,.23-.84v-.2l.26-.87a.61.61,0,0,1,.16-.4h.06l.32-1.13a5,5,0,0,1,.43-.68,1.35,1.35,0,0,0,1.08-1.06.49.49,0,0,0,.41-.24l.54-.13.42.06.26-.18Z"/><path class="cls-1" d="M294.55,121.24l.12.09H295l1.35,1.11,1,1.2L295.71,125l-.21.31-1.11.31-.54-.07-.46-.41h-.28l-1.23,2.94-.54.74-.06.76-.46,1-.22.8-.26.46-.12,1.13-.19.6a2.46,2.46,0,0,1-.38.51v.39l-.19.74.13.44a6,6,0,0,1-.39,1.13l.06.63-.21.81.15.13v.43l.26.31-.15.56.15,1.27h-.09l-.06.94a2.79,2.79,0,0,0,.63,1.11l-.14.25.26.38.16,1.61-.37.39v.46l-.2.55h-.19l-.63,1.06-.52-.07-.49.67-.87.73-.63-1.33v-1.37l-.2-1.2.08-.56-.83-1.42.21-.39-.21-.46.15-.17-.54-.24-.21.17a2.84,2.84,0,0,0-.54-.91H284l-.34-1.33-.63-.67-.32-.77a2.49,2.49,0,0,1-.27-.8l-.81-.87-.2-.5.06-.39-.22-.38-.21-.1-.17-.53h-.16l-.21-.67-.42-.64a1.69,1.69,0,0,1-.17-.62l-.36.09-.39,1v.31a12,12,0,0,1-.33,1.5l-.3.19.15.55.33.25-.13.77v.87l-.68,1,.06.7-.18.49.18.53-.12.17.06.5-.27.7V143l-.26.39-.22,1v.33l-.11.14-.69,2.47-.2.47-.55.3.06.19-1.08.55-.54-.17-.14-.63.36-.48-.16-.23H274v-.17l.47-.49-.12-.63.48-.14.66-1,.21-.94v-.4l.33-.42v-.7l.89-4.29-.06-.26v-.7l.4-.7-.12-.48.32-.63.06-.43.16-.63-.07-.31.22-.94-.57-1.69a1.47,1.47,0,0,1,.42-.45l-.22-.89.15-.54.28-.07.05-.5h-1.22l-1.23.5-.26-.19-.66,1.59-1.71,1.85-.9.46-.38-.87v-.64l.32-.15-.06-.34-.2-.07v-.39l.32-.31V130l.54.23.14-.23-.2-.23a5.79,5.79,0,0,1,.63-.94l.74-.24.06-.57.34.07.27-.36a.92.92,0,0,1,.31-.2l.58-.24.06-.14.41,0a.76.76,0,0,0,.44-.21,2.25,2.25,0,0,1,.9-.3l.71-.14,1.63-1.09.4-.5.83-.37.73-.11.38.91a2.28,2.28,0,0,0-.35,1.26l.43,2.77.22.65v.46h.38l.06.7.63.64-.06.46.13.17,1.16,2.31,1.22,2.83.34.41v.22l.26.35.42.06.06-.41.21-.06v-.26l.54-2.07,0-.49a7.51,7.51,0,0,1,.29-1.08l.57-.48v-.39l.32-.63v-.48a3.47,3.47,0,0,0,.49-1.27.73.73,0,0,0,.24-.27l.15-.22.83-2.62a1.35,1.35,0,0,1,.29-.49l.19-.91.27-.26.33-.73.21-.7.26-.38a2.14,2.14,0,0,0,.28-.66l.26-.07.76-1.66.32-.34h.15c.11-.21.21-.31.27-.31Z"/><path class="cls-1" d="M302.21,131.58l.36.07h.06l-.06.17h.12l.2.24.69.07h.68l.4.26h.14l.22.87-.3.31v.32l.48.57-.06,1.57h-.2l-.08.31h-.06v.49l.28.07.12.17-.18.33v.23l-.36.21-.26.26-.76.47a5.27,5.27,0,0,1-.53.57l-.22.7-1.28.6-1.29,0,.06.38h-.26l-.06.1-.63.15-.06-.25-.22.1V141l-.54.24-.2.71.28.87v.42l.14.38c-.19.67-.33,1-.42,1.06l.09.31-.15.07.34.17v.53l.29.24a5,5,0,0,0,.89-.38l.22.24.06-.07a5.32,5.32,0,0,0,1-.17l.1-.21h.35l.28,0,.35.2-.09-.13h.29l.37-.36.42,0h-.09l.41-.21.12.1.22-.24h.29l.28-.32a2.64,2.64,0,0,0,1-.45v-.18l.43-.14.45-.77.48.07a1,1,0,0,0,.58.32l.22.24-.33.74.06.46-.47.31-.06.17-.7.1-.38.46-.42,0-.12.39-.57-.07-.17.48-.46-.07-.17.24a2.29,2.29,0,0,0-.51.26l-.21-.14-.33.38h-.49l-.29.17h-.17l-.22.22a2.94,2.94,0,0,0-.78.38l-.2-.18h-.42L300,148l-.16-.07-.2.07-.06-.07-.15.39H299l-.32.2a2,2,0,0,1-.71.18l-.14.17h-.26l-.4.06-.29.43-.39-.17-.21.31-.16-.05a4.9,4.9,0,0,1-.58-.65l.06-.41-.06-.22.06-.41-.22-.64.08-.49-.14-.77.14-.63-.2-1-.06-.07.06-.49.48-.21v-.34l-.2-.08.06-.45-.14-.25.08-.41.2-.14-.06-.39.06-.67.12-.07.2-.8.48-1,.43-.19.06-.55L297,138l.06-.31.26-.17.16-.56h-.37v-.21l.15-.25-.06-.24.06-.24h.06v-.57l.48-.06.2-.5,1-1.33h.2a1.87,1.87,0,0,1,.45-.55l.21.07a1.38,1.38,0,0,0,.48-.57h.15l.27-.2h.12l.21-.36Zm-.36,2.91-.51.21-.39-.21a3.27,3.27,0,0,1-.57.48,1.36,1.36,0,0,1-.3.75c-.17.21-.29.31-.36.31h-.26l.18.37c-.11.23-.25.59-.43,1.06l-.23-.06-.09.44.09.63.29.19a2.79,2.79,0,0,0,.73.2l.47-.35,1-.11.51-.87.69-.67.09-1.26-.24-.41,0-.6h-.33Z"/><path class="cls-1" d="M315,131.58l.36.07h.06l-.06.17h.12l.21.24.68.07h.69l.39.26h.15l.22.87-.31.31v.32l.48.57-.06,1.57h-.2l-.07.31h-.06v.49l.28.07.11.17-.17.33v.23l-.37.21-.26.26-.76.47a5.35,5.35,0,0,1-.52.57l-.22.7-1.29.6-1.28,0,.05.38h-.26l-.06.1-.62.15-.06-.25-.22.1V141l-.54.24-.21.71.28.87v.42l.15.38c-.2.67-.34,1-.43,1.06l.09.31-.14.07.33.17v.53l.29.24a4.63,4.63,0,0,0,.89-.38l.22.24.06-.07a5.15,5.15,0,0,0,.95-.17l.1-.21h.35l.28,0,.35.2-.09-.13h.29l.37-.36.42,0h-.08l.4-.21.12.1.22-.24h.29l.28-.32a2.73,2.73,0,0,0,1-.45v-.18l.42-.14.45-.77.48.07a1,1,0,0,0,.59.32l.22.24-.34.74.06.46-.47.31-.06.17-.7.1-.38.46-.42,0-.12.39-.57-.07-.17.48-.45-.07-.18.24a2.29,2.29,0,0,0-.51.26l-.2-.14-.34.38h-.48l-.29.17h-.18l-.22.22a2.89,2.89,0,0,0-.77.38l-.21-.18H313l-.18.18-.16-.07-.2.07-.06-.07-.14.39h-.4l-.32.2a2,2,0,0,1-.7.18l-.15.17h-.26L310,149l-.3.43-.39-.17-.2.31-.16-.05a4.53,4.53,0,0,1-.59-.65l.06-.41-.06-.22.06-.41-.22-.64.09-.49-.15-.77.15-.63-.21-1-.05-.07.05-.49.49-.21v-.34l-.21-.08.06-.45-.13-.25.07-.41.21-.14-.06-.39.06-.67.11-.07.21-.8.48-1,.42-.19.06-.55-.06-.15.06-.31.26-.17.16-.56h-.36v-.21l.14-.25-.05-.24.05-.24h.06v-.57l.49-.06.2-.5,1-1.33h.21a1.6,1.6,0,0,1,.45-.55l.2.07a1.31,1.31,0,0,0,.48-.57h.15l.28-.2h.11l.21-.36Zm-.35,2.91-.51.21-.4-.21a3.27,3.27,0,0,1-.57.48,1.28,1.28,0,0,1-.29.75c-.17.21-.29.31-.36.31h-.27l.18.37c-.11.23-.25.59-.42,1.06l-.24-.06-.08.44.08.63.3.19a2.66,2.66,0,0,0,.72.2l.47-.35,1-.11.51-.87.68-.67.09-1.26-.23-.41,0-.6h-.34Z"/><path class="cls-1" d="M334.66,121.43l.43.07.05.24.21.07-.06.7v.26l-.2.24,0,.54a1.58,1.58,0,0,1-.29.82l.19.14-.34.17v.39l-.32.38v.63l-.1-.07-.18.43-.07.7a1.46,1.46,0,0,1-.22.48l.09.39-.13.43a1.17,1.17,0,0,1-.19.39l-.31.36v.63l.15.07-.15,1,.09.21-.37.73v.64l-.26.3v.81l-.33.56v.33l.13.13-.08.48.16.26a1.21,1.21,0,0,1-.62.7l-.06.48.2.15-.42.31.06.36-.06.44a3.13,3.13,0,0,0,.9-.14l.27.14-1.23,1.76-.41,1.92-.27.2.05.56-.11.18.06.25-.06.14v.73l.06.46h-.12l-.09.41-.22.21h-.11v.89l.27.17-.33.56h.11l-.05.31.21.33v.3l.21.24-.09.57.15.32v1.25l-.21.07.21.56v.5l.26,1.18L332,154h-.06l.46.5c.29.53.52,1,.71,1.26a1.23,1.23,0,0,1,.52.5h.13v.17l.29.2h.18l.28.24a1.21,1.21,0,0,0,.83-.77,1.51,1.51,0,0,0,.74-.48l.28.55-.22.09v.3l-.26.18.06.39v.31l.2-.07V158l-.41.24.09.14-.2.07-.11.18.11.14h-.22l.06.17a2.47,2.47,0,0,0-.86.5,4.49,4.49,0,0,1-.69-.81l-.6.24-.31-.42-.11-.31-.09-.09a.37.37,0,0,1-.11-.18c0-.08-.08-.18-.13-.3v-.3l-.21-.4v-.17l-.27-.2-1.49-2.17-.9-1.9.09-.24-.35-.63.26-.17-.12-.33-.09-.87-.11-.31-.16-.7-.27-.46a1.76,1.76,0,0,1-.1-.53l-.1-.94v-.7h-.07l.16-.73-.09-.38-.39-.07.11-.32.15.13-.21-1-.26.37.26-1h-.2v.07l-.22-.07-.66.77,0-.07-.41.24v.33l-.34.31v.17h-.2l-.25.22a1.22,1.22,0,0,1-.51.17l.07.38-.34.25a2.07,2.07,0,0,1-.36.94v.24l-.26.26v.37l-.27-.06L324,149l-.57.26-.12.31-.27.07v.12l-.41.2h-.06a1.74,1.74,0,0,0-.34-.77v.14a2.52,2.52,0,0,0-.48-.63l-.09-.87.09-.4v-.24a1.35,1.35,0,0,0-.2-.39l.11-.24v-.24l.09-.49-.26-.31.26-.22a2.65,2.65,0,0,1-.2-1V144l.05-.39-.11-.41.26-.53-.15-1.06h.15l.13-.55v-.25H322v-1.57l.2-.17.06-.77v-.33h.48l.12-.87.48.14.34-1v-.31l.09.14a9.39,9.39,0,0,0,.46-1.33l.19-.18v-.25l.09.25.06-.49.26-.07.16-.39v-.17l.21-.07a3.65,3.65,0,0,1,.8-.94l.06.13.22-.3.26.1.12-.1v-.16l.16.07.2-.7.66.22-.06-.07H328l-.1-.06.22-.09.72.12.86.58h-.3l.57.19v.14l.38.49c.12.49.21.75.28.77l.21-.08.14-.48.28-.14v-.8l.06-.26.2-.07-.06-.56.12-.24.34-.21-.12-.32.06-.1-.28-.14v-3.18l.22-.26a1.67,1.67,0,0,1,.12-.44l-.06-.12v-.94l-.34.24-.26-.07a.86.86,0,0,1-.37.16l-.05.3-.43.24h-.17l-.35-.3-.19-.64-.15-.1.15-.21-.15-.49.15-.24.27-.07.06-.25.27-.07.27-.57h.15l.06-.17,1.08-.94.06-.13h.48v-.19l.14.19h.21l.06-.26a.91.91,0,0,0,.48-.24Zm-7.33,13-.11.44-1,.56-.43,1-.2.15h-.06l-.13.24-.09-.07-.12.38.12.19a2.4,2.4,0,0,1-.26,1v.31a1.6,1.6,0,0,0-.4.82h-.14v.38l-.21.73.15.39a8.38,8.38,0,0,1-.48,1.29l.12.22v.63l.16.17-.22.38.06.49.27.38v-.14l.21.14.42-.21.12.07.74-1,.21-.07v-.07l.42-.49.48-.24.32-.46.22-.1.69-.71.92-.8.19-.67a2.53,2.53,0,0,1,.38-.52,2.7,2.7,0,0,1,.33-1l-.42-.57-.06-1.26-.06-.41v-.14a1.54,1.54,0,0,1-.2-.49h-.22l-.06.37-.35-.07v-.37l-.13.07-.06-.24-.41.17-.42-.17-.06-.4Z"/><path class="cls-1" d="M342.65,129.62l.48.14.28.49.26.14-.2.87-.66.46-2.67,1.51-.41.83.09.94.91,1.63.2.73.52-.08.57.63v.63l.28.14,1,2.24.31.53a5.58,5.58,0,0,0-.12.87l.06.25-.27.48-.47,1.16a4.5,4.5,0,0,0-1.05,1.37l-.4.07-.06.24-1.85,1.69a3.48,3.48,0,0,1-1.14,1l-1.75.56a1.81,1.81,0,0,1-.63.63l-.28-.63v-.39l-.2-.31L336,148a2.24,2.24,0,0,1,.25-.45l.14-.15a2.65,2.65,0,0,1,.7-.24q.34-.39.54-.39h.22a7.46,7.46,0,0,0,.6-.62h.21l.05-.19.21-.07.13-.51h.12l.26-.49.42-.21.12-.43.15-.13.27-1.06-.22-.55-.59-2.07-1.41-1.16c-.23-.38-.44-.69-.62-.94l-.12-.56a2.52,2.52,0,0,0-.34-.74l-.14-.07-.21-.66V136a3.16,3.16,0,0,0-.2-.84l.38-1.13.15.07v-.49l.33-.31v-.21a5.27,5.27,0,0,0,.75-.73h.27v.24l.27-.64v.14c0-.07.2-.19.56-.37a.39.39,0,0,1,.33-.33,7.17,7.17,0,0,0,.48-.8l.28-.07.2.07.12-.14h.48v-.1l.83-.29a2.19,2.19,0,0,0,.6-.34Z"/><path class="cls-1" d="M364.46,123.38l.26.12.06.7.63.24v.24L365,125l-.12.45a7.07,7.07,0,0,0-1.86,1.13,2.94,2.94,0,0,1-.74.8l-1.77,1,.22.32-.42,1a5.71,5.71,0,0,1-.26,1.11l-.19.56-.57,3.09-.38,2.94-.22-.06v2.3h-.15l.15.38-.06.39.19,2.7-.07.24.27.31,1.44-.14.35.16a2,2,0,0,1,.52.3c-.5.86-.86,1.29-1.08,1.3l-.12.31-.42-.07-.42.7-.32.07-.19.29a4.29,4.29,0,0,1-.62.51l-.36-.07-.75.31-1.19.16-2.25.48-.54.25-.41-.32-.34.13-.08-.94.89-.94.14-.22a1.91,1.91,0,0,1,.46-.34l.1-.39.06.15.65-.5.89-.2.34.07.45-.22a2.35,2.35,0,0,0,.64-.52v-.46l-.2-.31.12-1.43-.12-.26.2-.61-.08-1-.18-.17.26-.46-.08-.48.16-.57-.16-.32a3.7,3.7,0,0,1,.57-1l-.3-.46.3-.88a1.34,1.34,0,0,0-.41-.56l.41-.7-.57-.34.27-.53-.11-.67L357,132v-.44l.35-.5a5.47,5.47,0,0,1,.28-1.26l.21-.18-.27-.87.18-.56-.45-.21-.89.31-.43.46a2.21,2.21,0,0,0-.39.31h-.27l-.24-.48a5.1,5.1,0,0,1-.3-1l.28-.6a.92.92,0,0,1,.81-.41v-.26l.2-.07.19-.3h.29a5.36,5.36,0,0,0,.86-.74l.48-.07a3.25,3.25,0,0,1,.75-.49h.42v.1a2.33,2.33,0,0,1,.94.39l.52-.39,2,.07.35.07,1.14-1.11Z"/><path class="cls-1" d="M369.6,131.43l.57.09.82-.12v1.19a.63.63,0,0,0-.25.46.87.87,0,0,0-.41.74,1.19,1.19,0,0,0,0,.31l-.1.66-1.1,2.31L369,138.2l-.26.41,0,.87-.43,2.32a.22.22,0,0,0,0,.14.28.28,0,0,0,.14.24l.67-1,.38-.24.31-.82.57-.48.68-1.23a2.57,2.57,0,0,1,1.2-.91,1.67,1.67,0,0,1,.44-.84,2,2,0,0,0,.37-.3c.2-.2.39-.36.56-.5l-.05-.12c.7-.44,1-.74,1-.9a2,2,0,0,0,1-.88c.7-.75,1.2-1.15,1.51-1.19a1.57,1.57,0,0,0,.39-.16,1.44,1.44,0,0,1,.46-.18.93.93,0,0,1,.8-.47c.2,0,.3.17.3.5l0,1.11-.19.63,0,.81-.32,1-.34,2.41c0,.14-.1.22-.2.24l.17.77-.2.43.35.24-.12.22a4.26,4.26,0,0,0-.29.55,2,2,0,0,1,.24.32l-.09,1.37h.06c.09,1.2.21,1.8.33,1.81l.63-.27a3.19,3.19,0,0,1,1.12-1.2.66.66,0,0,0,.4-.2.27.27,0,0,0,.29-.18,1.74,1.74,0,0,1,.47-.24,5.13,5.13,0,0,0,.86-.46l.5.14a.81.81,0,0,1,.21.38c-.26.37-.54.82-.85,1.35s-.52.78-.65.78H381l-.3.53-.75.17-.66,1-.54.17L376.69,148l-.62.74-.09-.64-.54,0-.19-1-.29-.27,0-1.2-.15-.73c0-.61.1-.94.29-1v-.09l.18-.8,0-1.11.34-.77-.24-.33.47-.63,0-1.32.25-.63-.43-.66.12,0V137l.28-.18v-.1l0-.29v-.07a1.21,1.21,0,0,0-.66-.27l-.7.67-1,.53-1.43,1.88-.22.39a3.74,3.74,0,0,0-.63.84l-.29.24a3.15,3.15,0,0,0-.06.46l-.57.77-.59,1-1,1.9h-.05l-.18.48-.28,1.13a14.56,14.56,0,0,0-1.09,1.19l-.48.14-.31.6-.2,0-.4-.1a1.66,1.66,0,0,0-.68.17l.3-.7.12-.63a26.75,26.75,0,0,0,.86-2.94h.06v-.5l.31-1,.11-.88H367l-.15-.56.15-1.06.1-.38a4.18,4.18,0,0,1,.41-.73l-.09-.46.18-.31a4.83,4.83,0,0,1-.26-1.5l.08-.57-.05-.1v-.2a1.44,1.44,0,0,0-.91-.33.66.66,0,0,0-.34.1,2.49,2.49,0,0,0-.55.93c-.63.25-1,.41-1.11.47l-.26-.66a.63.63,0,0,1,.15-.45.42.42,0,0,1,.26-.15h.24l.24-.38.45-.13-.17-.14V135l.55.11.6-.77.85-.59.14-.22h.09l-.15-.24a.38.38,0,0,0,.18.07c.08,0,.12-.1.12-.31a1.75,1.75,0,0,1,1.08-.8.71.71,0,0,1,.65-.56v-.17Z"/><path class="cls-1" d="M392.07,132.76a1.08,1.08,0,0,0,.38-.3.42.42,0,0,1,.28.24,2,2,0,0,1,.62-.18h.06l.69.31h.39l.09-.13.44.32V133l.28.07.2.24h.36a.59.59,0,0,1,.09.34,4,4,0,0,1-.77,1.56l-1.45.41-.11.32-.27.14v.07h-.42l-.42-.4-.44-.07-.26-.17a4.78,4.78,0,0,0-.91-.2v-.19l-.8.63a2.35,2.35,0,0,0-.85.57l-.17.49-.49.64a6.21,6.21,0,0,1-.62,1.24l-.12,1.37-.42.63h.16V141a5.48,5.48,0,0,1-.37,1.42l.15.39-.21.17-.06,1-.42.24.28.3.09.81.17.15.75-.56.83-1.13.45-.31.42-.7.95-1.13.82-1.25,1.23-1.62.84-.8a2.23,2.23,0,0,0,.37-.43l.5-.67a6.28,6.28,0,0,0,.52-.92l.4-.26.21-.23a.6.6,0,0,1,.31-.19l.42-.14.22-.37a.61.61,0,0,0,.32.13l1-.31.06.55.42.39-.34.17V136l-.14.31v.17l-.4.46v.56l-.14.38a3.56,3.56,0,0,1-.43,1.3h.16l-.42.77-.06.87a7.08,7.08,0,0,0-.22,1.13,1.89,1.89,0,0,0-.38.8h-.36l-.12.31h-.08l.14.15-.32,1.11.06.43-.34.77v1.18l-.26.56-.15.63a4.63,4.63,0,0,0-.7,1.87l-.11,1.42-.21.39.12.63-.06.17h.06l-.6,2.14-.15.31a1,1,0,0,1,.3.32,2.37,2.37,0,0,1-.32.53,1,1,0,0,0-.25.51v.16a1.28,1.28,0,0,1-.09.58l-.23.36-.12.47a2.76,2.76,0,0,0-.31.89c0,.28.22.41.66.41l.31,0v-.07l.14-.07v.07l.12-.07v-.1l.14.1v-.1l.22.1a.72.72,0,0,0,.78.41L395,159l.9.26,1.17-.09,1.34.29,1.43-.2.6.06c.11,0,.2-.08.28-.25l.15.1v-.1l.54.19,1.06-.09.34-.1a1.11,1.11,0,0,0,.66.22l.2,0h.1l.69-.19v-.14h.32l.91-.24h-.22c.47-.25.71-.54.71-.87a1.73,1.73,0,0,0,0-.36,2.62,2.62,0,0,1,0-.49.74.74,0,0,1,.51-.74v-.07c0-.11.06-.17.18-.17l.28.07a3.13,3.13,0,0,1,.48-1l.47.07.62-.17a2.24,2.24,0,0,0,.34.73l-.26.31-.08.5-.41.44.06,1.62q-.37.5-1.08,1.32l-.6.33-.43.44a1,1,0,0,1-.34.19l-.45.17-1.49.07-1,.1.05-.1-.94.1-2.52-.1-1.41.1v-.1l-.35-.07h-.12a1.9,1.9,0,0,1-.39.07h-.15a1.48,1.48,0,0,1-.54.15l-.63.09-.68-.14-.22.14-.12-.24v.17H394a.47.47,0,0,1-.12.32l-.48-.18a2,2,0,0,0-.74.18l-.28-.07-.32.14-.31-.25-.86.25h-.34l-.26.38-.42-.07-.32.07v-.07a1.4,1.4,0,0,1-.37.26.6.6,0,0,1-.2-.26c-.08.17-.17.26-.28.26s-.14-.07-.2-.19a2.08,2.08,0,0,1-.72.36c-.2-.12-.34-.2-.42-.26l-.21.26h-.48l-1.23.63c-.35-.15-.56-.26-.59-.33l.11-.3-.06-.5.43-.24v-.07a1.38,1.38,0,0,1,.79-.51,1.26,1.26,0,0,0,.61-.22l.15.1-.06-.32.22-.11-.09.11.14.08a.71.71,0,0,0,.12-.32l.09.06c.05,0,.09-.1.12-.23a.66.66,0,0,0,.68-.57h.13l-.07.1h.16l.06-.1h.12a1.16,1.16,0,0,0,.42-.31l.15.11v-.11c.18-.06.4-.46.65-1.19l.21-.07-.06-.56.22-.7.11.2h0a.5.5,0,0,0,.38-.51l.28-.33-.14-.17.05-.56.27-.24-.06-.63c.19-.46.34-.8.45-1a2.21,2.21,0,0,0,.2-.55q0-.22.06-.6c0-.25.05-.53.09-.85l.09.13.13-.3-.07-.57v-.06c0-.39.16-.6.48-.64l.06-.07.06.07.1-.49-.1-.38.22-.39v-.31l.26-.24-.12-.82L393,147v-.63l.36-.24-.22-.32.22-.35a1,1,0,0,0,.09-.39l.09-.67.28-.35a1.45,1.45,0,0,0,.2-.52l-.34-1,.06-.63-.07-.27c0-.08-.09-.41-.19-1l-.2-.1-.4.63-.89,1.22a3.92,3.92,0,0,1-.76,1,3.24,3.24,0,0,1-1,1.81l-.65.57-.91,1.13a1.49,1.49,0,0,0-1,.36q-.3.31-.54.6c-.16.19-.42.47-.79.85l-.15-.07a1.26,1.26,0,0,1-.31.25,2.54,2.54,0,0,0-.55.45v.17h-.22l-.26.14-.15-.31a.68.68,0,0,1-.33-.63v-.14a.94.94,0,0,1-.52-.77A3.3,3.3,0,0,1,384,147a3.6,3.6,0,0,0,.15-1l.06.08-.06-.32h.06l.2-.88.28-1.89.21-.55a.35.35,0,0,1,0-.1l.07-.16-.06-.13v-.17a3.36,3.36,0,0,0,.3-.62,3.23,3.23,0,0,0,.24-.65l-.26-.37.21-.12v-.24a2,2,0,0,1,.26-.38l.07-.63.09.07v-.14l-.09-.26.35-.06-.06-.67v-.1a.3.3,0,0,1,.27-.34,1,1,0,0,1,.27.3l.06-.3c0-.13,0-.19-.11-.19h0l.08-.55a1.62,1.62,0,0,0,.4-.39,4.37,4.37,0,0,1,.59-.73l.33-.33a.92.92,0,0,1,.28-.28c.13-.09.34-.21.62-.37a2.28,2.28,0,0,0,.47-.6l-.06.17,1.07-.82a2.58,2.58,0,0,1,.7-.31,1.89,1.89,0,0,0,.8-.48Z"/><path class="cls-1" d="M407.76,131l.46.63a9.61,9.61,0,0,0-.54,1.37l-.54.38-.12.39.12.1v.31l.05.14-.11.19v.37l-.21.57-.2.17a11.18,11.18,0,0,0-.34,1.26l-.32.31-.1.56.1.07-.36.5v.37l-.12.19.18.94-.18.8.12.94.14.7v.64l.12.8-.12.32v.94a1.49,1.49,0,0,0,.6-.46l.28.07v-.24l.68-.77.33-.24v-.18l.54-.55.14-.56a1.69,1.69,0,0,0,.54-.47l.06.14v-.31l.31-.31v.18l.11-.24h.21v-.19l.06-.14h.27l.06-.24-.06-.39,1-1a.59.59,0,0,0,.21-.3l.16-.41a1.4,1.4,0,0,1,.54-.23l.06-.26.14-.14h.19v-.3l.09.23v-.3c.09-.2.17-.32.26-.36l.06-.21.69-.87h.27l.27-.32.27-.67a6.77,6.77,0,0,0,.81-1.18l.42-.08.38-.81-.12.43.54-.5.32.26.43-.32h.54l.26.25.1.62-.24.27a2.43,2.43,0,0,0-.33.68l.09.31-.14.57v.23l-.22.26v.45l-.27.1v.89l0,.37,0,.4-.27.3.16.43-.16.31.16.77-.16.42v3l.16.63.26.24.54-.06.26.3-.06.4-.35.17-.13.39-.26.07-.2.41h-.22l-.12.39-.63.24-.2.46-.82.17-.32.4-.69.17-.33-.26-.27-1,.27-.42-.15-.31.21-.31.27-.07L414,143v-.31l-.17-.43.28-.13-.11-.31.11-.43-.28-.13-.15-.24.27-.26v-.38l.16-.42a1.57,1.57,0,0,0-.54-.38l-.09-.82h-.28l-.2-.14-.28.57L411.21,141l-.28.24-.06.24-1.15,1.58-.13.32-1.23,1.68L406.87,147l-.45.29a1.32,1.32,0,0,0-.29.45c-.42.18-.65.28-.69.31v.17l-.19-.11v.5l-.41.31-.54-.07-.54.46-.08-.24-.34-.22-.06-.41a1.42,1.42,0,0,1-.35-.57l-.33-.13-.12-.4-.21-2.73.21-1h.12v-.73l.33-.31-.06-.33.21-.56h.26l.06-.2-.06-.48.22-.09.06-.55.06-.06-.18-.26.18-.48V139l.08-1.2h.12v-.56l.28-.38-.22-.32.22-.41-.08-.21.28-.63-.42-.56-.26.06-.06.31-.4.09-.14.41h-.48l-.21-.31-1.62.63-.42-.82.54-.61a1,1,0,0,0,.54-.64l.48-.1v-.15h.42l.54-.07.35-.74.54.19.6-.19a.62.62,0,0,1,.21-.27h.48l-.06-.1.12-.07h.33l.09-.19a1.85,1.85,0,0,0,.66-.55h.26l.22-.32.2-.07.21.07.27-.17.15.17.12-.31Z"/><path class="cls-1" d="M427.71,133.53h-.06l-.12.89.12.1-.21.64-.05-.12v.25a2.31,2.31,0,0,1-.54,1.44H427V137h-.06l.06,2-.11.24,0,.32-.21,1.25h.07a4.59,4.59,0,0,1-.15,1l-.13.46-.17,2.28a3.75,3.75,0,0,0-.06.39c0,.2.08.31.23.31a1.08,1.08,0,0,0,.62-.26l.94-.75q.4-.57.57-.57h.09a1.36,1.36,0,0,0,.47-.46,1.14,1.14,0,0,1,.33-.37c.15-.31.28-.46.4-.46l.11,0,.54.12.12.48a2.21,2.21,0,0,1-.23.89c-.16.34-.28.62-.37.84a1.13,1.13,0,0,1-.62.54v.12l-.21-.07v.24h-.13c0,.31-.17.49-.41.53v.1h-.39v.07h-.15l-.39.31h-.12l-.21.32-.59.11a.3.3,0,0,1-.28.2l-.75.63V148l-.36-.07.1.17-.48.14v.09h-.2v.23l-.22.18h-.06v.06c-.13.43-.31.64-.54.64l-.21-.07a4.26,4.26,0,0,0-.59-1.27,4.84,4.84,0,0,0,.11-.8l-.11-.7v-.38a6.91,6.91,0,0,1,.08-1.09l.09-.44v-.09h0a0,0,0,0,1,0,0s.05-.21.14-.55a5.36,5.36,0,0,0,.14-1.33c0-.14,0-.22-.13-.24l.19-.46v-2.07l.23-.6a4.94,4.94,0,0,0,.24-1.08.51.51,0,0,0,.21-.25l-.11-.21.11-.34c-.15-.35-.33-.53-.54-.53h-.68a.45.45,0,0,0-.12.31H423a.64.64,0,0,1-.38.56.57.57,0,0,1-.43.53l-.26.5h-.06c-.06.25-.19.37-.36.37s-.35-.16-.48-.49a4.45,4.45,0,0,1-.18-.55.24.24,0,0,1,.06-.15,1.92,1.92,0,0,1,.91-1.25v-.14a2.35,2.35,0,0,1,.65-.56h-.13a.9.9,0,0,0,.74-.76.69.69,0,0,1,.77-.61l.17.07.37-.21h-.22l.33-.25.09.07.26-.38.08.07a.75.75,0,0,1,.8-.5c.1,0,.14,0,.14-.13v-.17h.12l-.06-.07.48-.4a.81.81,0,0,1,.75-.48.83.83,0,0,1,.56.21.56.56,0,0,1,.24.41A1.63,1.63,0,0,1,427.71,133.53Zm2.11-10h-.08l-.54,1.36-.06-.07a.42.42,0,0,1-.15.32v.07a2.06,2.06,0,0,1-.8.87l-.12-.07v.14a2.4,2.4,0,0,1-.88-.28,1.17,1.17,0,0,1-.47-.65c-.1-.3-.2-.62-.3-1a1.2,1.2,0,0,1,.37-.43l.11-.46.49-.31.26-.66.48-.31v.1l.26.14a.67.67,0,0,0,.14-.11l.11-.11A1.16,1.16,0,0,1,429,122a1.39,1.39,0,0,0,.42-.18l.16-.1h.12l.22.39v.55l.06.49Z"/><path class="cls-1" d="M438.5,129.62l.48.14.28.49.26.14-.21.87-.65.46L436,133.23l-.41.83.09.94.91,1.63.19.73.53-.08.57.63v.63l.28.14,1,2.24.31.53a5.58,5.58,0,0,0-.12.87l.06.25-.27.48-.47,1.16a4.5,4.5,0,0,0-1.05,1.37l-.4.07-.06.24-1.85,1.69a3.48,3.48,0,0,1-1.14,1l-1.75.56a1.89,1.89,0,0,1-.63.63l-.28-.63v-.39l-.2-.31.57-.49a2.24,2.24,0,0,1,.25-.45l.14-.15a2.65,2.65,0,0,1,.7-.24q.35-.39.54-.39h.22a7.46,7.46,0,0,0,.6-.62h.21l.05-.19.21-.07.13-.51H435l.26-.49.42-.21.12-.43.15-.13.27-1.06-.22-.55-.59-2.07L434,139.24c-.23-.38-.44-.69-.62-.94l-.12-.56A2.52,2.52,0,0,0,433,137l-.14-.07-.21-.66V136a3.16,3.16,0,0,0-.2-.84l.38-1.13.14.07v-.49l.34-.31v-.21a4.62,4.62,0,0,0,.74-.73h.28v.24l.26-.64v.14c0-.07.21-.19.57-.37a.39.39,0,0,1,.33-.33,7.17,7.17,0,0,0,.48-.8l.28-.07.2.07.12-.14H437v-.1l.83-.29a2.19,2.19,0,0,0,.6-.34Z"/><path class="cls-1" d="M448.08,133.53H448l-.12.89.12.1-.21.64-.06-.12v.25a2.31,2.31,0,0,1-.54,1.44h.12V137h-.06l.06,2-.12.24.06.32-.22,1.25h.08a4.59,4.59,0,0,1-.15,1l-.13.46-.18,2.28a2.7,2.7,0,0,0-.05.39c0,.2.07.31.23.31a1.05,1.05,0,0,0,.61-.26l1-.75q.39-.57.57-.57h.09a1.45,1.45,0,0,0,.47-.46,1,1,0,0,1,.33-.37c.15-.31.28-.46.39-.46l.12,0,.54.12.12.48a2.09,2.09,0,0,1-.24.89l-.37.84a1.09,1.09,0,0,1-.62.54v.12l-.2-.07v.24h-.13c0,.31-.17.49-.41.53v.1h-.4v.07h-.14l-.4.31H448l-.21.32-.6.11a.28.28,0,0,1-.27.2l-.75.63V148l-.36-.07.1.17-.48.14v.09h-.21v.23l-.22.18h0v.06c-.13.43-.31.64-.54.64l-.21-.07a4.57,4.57,0,0,0-.6-1.27,4.15,4.15,0,0,0,.12-.8l-.12-.7v-.38a7,7,0,0,1,.09-1.09l.09-.44v-.09h0a0,0,0,0,1,0,0,4.29,4.29,0,0,1,.14-.55,5.36,5.36,0,0,0,.14-1.33c0-.14,0-.22-.13-.24l.18-.46v-2.07l.24-.6a5.13,5.13,0,0,0,.23-1.08.49.49,0,0,0,.22-.25l-.12-.21.12-.34c-.16-.35-.33-.53-.54-.53h-.69a.49.49,0,0,0-.11.31h-.1a.64.64,0,0,1-.38.56.57.57,0,0,1-.43.53l-.26.5h-.06c-.07.25-.19.37-.36.37s-.36-.16-.48-.49a4.45,4.45,0,0,1-.18-.55.24.24,0,0,1,.06-.15,1.91,1.91,0,0,1,.9-1.25v-.14a2.52,2.52,0,0,1,.66-.56h-.13a.91.91,0,0,0,.74-.76.68.68,0,0,1,.76-.61l.18.07.36-.21h-.22l.34-.25.09.07.26-.38.07.07a.77.77,0,0,1,.81-.5c.09,0,.14,0,.14-.13v-.17h.12l-.06-.07.48-.4a.81.81,0,0,1,.75-.48.83.83,0,0,1,.56.21.56.56,0,0,1,.24.41A1.63,1.63,0,0,1,448.08,133.53Zm2.11-10h-.09l-.54,1.36-.05-.07a.42.42,0,0,1-.15.32v.07a2.06,2.06,0,0,1-.8.87l-.12-.07v.14a2.4,2.4,0,0,1-.88-.28,1.17,1.17,0,0,1-.47-.65c-.1-.3-.2-.62-.3-1a1.2,1.2,0,0,1,.37-.43l.11-.46.48-.31.27-.66.48-.31v.1l.26.14a.67.67,0,0,0,.14-.11l.1-.11a1.44,1.44,0,0,1,.35-.13,1.39,1.39,0,0,0,.42-.18l.16-.1h.12l.21.39v.55l.06.49Z"/><path class="cls-1" d="M461.23,127.09a3.36,3.36,0,0,1-.48,1.26v.33l-.32.87v.56l-.43,1.18v.17c0,.27.08.4.22.4l.47-.17a1.45,1.45,0,0,0,.76.3h.65a5.39,5.39,0,0,1,1.38-.27,8.14,8.14,0,0,1,1.16.1v.11l.54.06.5.71-.47.7-.84.13-.83.53-.33.07a1.5,1.5,0,0,0-.48.29l-.9-.12c-.06.1-.33.17-.81.19l-1.5.07a5.51,5.51,0,0,0-.86.8l.06.87-.21.4-.11,1.24-.37.57-.06,1.5-.36.24-.06.43.22.87-.28,3.16.6,2.72.69-.34a.71.71,0,0,1,.74-.46h.28a2.05,2.05,0,0,0,1.08-.95l.68-.23-.08-.09.2-.31a1.2,1.2,0,0,0,.35-.42l.43-.18.11-.3c.15,0,.22-.09.22-.26a2.11,2.11,0,0,1,1.29-.87.37.37,0,0,1,.2.32,5.15,5.15,0,0,1-.26,1.17,2.59,2.59,0,0,1-.69,1.21l-.82.67-.25.39a.73.73,0,0,1-.33.34l-.53.27-.4.14-.88.92-.53.07-.67.63-.28.33a.81.81,0,0,1-.3.19l-1.86.85-.42.07-.34.31-.68-.53-.21-1-.22-.55c-.05-.17-.25-1.39-.58-3.66a5.4,5.4,0,0,1,.26-.6v-.59l.37-.18.44-1.43-.15-.48a2.13,2.13,0,0,0,.66-.2.25.25,0,0,0,.06-.16,1.93,1.93,0,0,0-.15-.41l.48-1.69.15-1.5.65-2.07a1.37,1.37,0,0,0-.42-.75,1.4,1.4,0,0,0-.71-.43l-.57.41h-.18a1.12,1.12,0,0,1-.6-.12l-.2-.12a.63.63,0,0,0-.34.17c-.08.24-.2.36-.35.36h-.06a.66.66,0,0,1-.24,0,3.49,3.49,0,0,1-.57-.07,6,6,0,0,1-.3-1.16,3,3,0,0,1,.22-.77c.14-.37.29-.56.44-.56l.21,0,.42-.13a2.22,2.22,0,0,1,.57-.14h.09a.34.34,0,0,0,.17,0,.55.55,0,0,0,.26-.06.43.43,0,0,1,.25-.07.38.38,0,0,1,.27.07l.54-.33h.16a1,1,0,0,0,.39-.07c.12,0,.26-.28.44-.7l.32.07a3.88,3.88,0,0,1,.36-1c.18,0,.27-.17.27-.49v-.21l-.09.14c.15-.45.27-.78.36-1l-.08-.67.62-1.4a1.1,1.1,0,0,1,.69-.56,3.42,3.42,0,0,1,1-1,2.41,2.41,0,0,1,.9-.5.6.6,0,0,1,.63.53l-.42,1Z"/><path class="cls-1" d="M472.21,133.53h-.06l-.12.89.12.1-.2.64-.06-.12v.25a2.31,2.31,0,0,1-.54,1.44h.11V137h0l0,2-.11.24.06.32-.22,1.25h.07a4.59,4.59,0,0,1-.15,1l-.13.46-.17,2.28a3.75,3.75,0,0,0-.06.39c0,.2.08.31.23.31a1.08,1.08,0,0,0,.62-.26l.94-.75q.4-.57.57-.57h.09a1.36,1.36,0,0,0,.47-.46,1.14,1.14,0,0,1,.33-.37c.15-.31.28-.46.4-.46l.12,0,.54.12.11.48a2.06,2.06,0,0,1-.23.89c-.16.34-.28.62-.37.84a1.13,1.13,0,0,1-.62.54v.12l-.21-.07v.24h-.13c0,.31-.17.49-.41.53v.1h-.39v.07h-.15l-.39.31h-.12l-.2.32-.6.11a.3.3,0,0,1-.28.2l-.74.63V148l-.37-.07.1.17-.48.14v.09h-.2v.23l-.22.18h-.06v.06c-.13.43-.31.64-.54.64l-.21-.07a4.26,4.26,0,0,0-.59-1.27,4.84,4.84,0,0,0,.11-.8l-.11-.7v-.38a8.36,8.36,0,0,1,.08-1.09l.09-.44v-.09h0a0,0,0,0,1,0,0s.05-.21.14-.55a5.36,5.36,0,0,0,.14-1.33c0-.14,0-.22-.13-.24l.19-.46v-2.07l.23-.6a4.94,4.94,0,0,0,.24-1.08c.12-.09.2-.17.21-.25l-.11-.21.11-.34c-.15-.35-.33-.53-.54-.53h-.68a.45.45,0,0,0-.12.31h-.1a.64.64,0,0,1-.38.56.58.58,0,0,1-.42.53l-.27.5h-.05c-.07.25-.19.37-.37.37s-.35-.16-.47-.49a3.74,3.74,0,0,1-.19-.55.24.24,0,0,1,.06-.15,1.92,1.92,0,0,1,.91-1.25v-.14a2.35,2.35,0,0,1,.65-.56h-.13a.9.9,0,0,0,.74-.76.69.69,0,0,1,.77-.61l.17.07.37-.21h-.22l.33-.25.09.07.26-.38.08.07a.75.75,0,0,1,.8-.5c.1,0,.15,0,.15-.13v-.17h.11l-.06-.07.49-.4a.78.78,0,0,1,.74-.48.83.83,0,0,1,.56.21.56.56,0,0,1,.24.41A1.47,1.47,0,0,1,472.21,133.53Zm2.12-10h-.09l-.54,1.36-.06-.07a.42.42,0,0,1-.15.32v.07a2.06,2.06,0,0,1-.8.87l-.12-.07v.14a2.4,2.4,0,0,1-.88-.28,1.21,1.21,0,0,1-.47-.65c-.1-.3-.2-.62-.3-1a1.2,1.2,0,0,1,.37-.43l.12-.46.48-.31.26-.66.48-.31v.1l.26.14a.67.67,0,0,0,.14-.11l.11-.11a1.16,1.16,0,0,1,.34-.13,1.39,1.39,0,0,0,.42-.18l.16-.1h.12l.22.39v.55l.06.49Z"/><path class="cls-1" d="M493.92,126.54l.2.38-.06.17.43.26.32-.11.13.41-.07.4-.26.24a7.34,7.34,0,0,1-.21.9l.09.36-.31.07-.17.73-.27.14v.33l-.36.23.06.74v.31l-.18.15a9.32,9.32,0,0,1-.42,1.35l-.75,2-.59,1.2-.37.13v.53l-1.4,2.58-.38,1.13-1.05,1.61-.43.39v.24l-.45.17h-.14l-.49.87-.26-.07-.45.74a3.71,3.71,0,0,0-.8.67H485l-.27.42a4,4,0,0,0-.89.94l.2.31-.42.19a3.72,3.72,0,0,1-.54.44v.43l-.21.14h-.17l-.24.36a.94.94,0,0,1-.26.29l-.41.22-.2-.07-.27.14-.39-.55a1.18,1.18,0,0,0-.2-.53v-1.13l-.49-2.3.27-.57-.75-1.43.21-.62a1.17,1.17,0,0,0-.27-.63l.21-.39-.21-.48h.12l-.06-.4.06-.42.15-.07v-.55l-.53-.49h.21l.05-.14-.05-.5-.31-.07-.12-.39.12-.1v-.94l.1-.14-.22-.1-.14-.63-.18-.14-.09.07-.22-.19-.26.19H478l-.2.38-.26-.07-.28.39-.26-.07.08.24-.36.24-.38-.41-.16-.7.6-.89.3.09.81-.89.39-.24a2.89,2.89,0,0,1,.57-.39H479V134h.14l-.08-.24.89-.39.22.07-.09-.07h.26l.15-.07-.21-.1h.15l.22-.33.38-.13.14-.21h.4v-.17h.14l.14-.26h.4l.28.33c.17.06.25.1.26.13l-.11.57.11.55-.39,1,.07,1-.07.4.19.87v1.74l.17,1.52,0,.31a4.36,4.36,0,0,0,.16.56l.6,1.75.14.17v.56l.14.46-.28.55.22.39,1.75-1.82.82-.77.29-1,.45-.13L487,141l.21-.23.14.07.14-.8c.29-.4.64-.9,1.06-1.5l.28-.5.2-.27,0-.23a4.08,4.08,0,0,1,.35-.59c.23-.35.41-.63.54-.85a6.68,6.68,0,0,0,.52-1.24l.37-.17L491,134l.22-.3a4.38,4.38,0,0,1,.6-1v-.38L492,132l0-.33a1.17,1.17,0,0,1,.13-.39l.25-.43a1.45,1.45,0,0,1,.32-.39l.2-.63-.35-.63-.33.18-.21-.1-.33.65h-.35l-.34.53h-.32l-.15-.14-.33.31-.42.07-.21-.24.37-.38v-.32a2,2,0,0,0,.26-.48l.33-.22.41-.8.12-.07.28-.34a2.58,2.58,0,0,0,.48-.53h.26l.27-.57.16.14.4-.14.34.07.26-.07Z"/><path class="cls-1" d="M501.6,131.58l.36.07H502l-.06.17h.12l.2.24.69.07h.69l.39.26h.15l.22.87-.31.31v.32l.48.57-.06,1.57h-.2l-.07.31h-.06v.49l.27.07.12.17-.17.33v.23l-.37.21-.26.26-.76.47a5.27,5.27,0,0,1-.53.57l-.22.7-1.28.6-1.28,0,0,.38h-.26l-.06.1-.63.15-.05-.25-.22.1V141l-.54.24-.21.71.28.87v.42l.15.38c-.2.67-.34,1-.43,1.06l.09.31-.15.07.34.17v.53l.29.24a5,5,0,0,0,.89-.38l.22.24.06-.07a5.15,5.15,0,0,0,.95-.17l.1-.21h.35l.28,0,.35.2-.09-.13h.29l.37-.36.42,0h-.09l.41-.21.12.1.22-.24h.29l.28-.32a2.64,2.64,0,0,0,1-.45v-.18l.43-.14.45-.77.48.07a1,1,0,0,0,.59.32l.22.24-.34.74.06.46-.47.31-.06.17-.7.1-.38.46-.42,0-.12.39-.57-.07-.17.48-.46-.07-.17.24a2.29,2.29,0,0,0-.51.26l-.21-.14-.33.38h-.48l-.3.17h-.17l-.22.22a2.89,2.89,0,0,0-.77.38l-.21-.18h-.42l-.18.18-.16-.07-.2.07L499,148l-.15.39h-.39l-.32.2a2,2,0,0,1-.7.18l-.15.17H497l-.4.06-.29.43-.39-.17-.21.31-.16-.05a4.9,4.9,0,0,1-.58-.65l.06-.41-.06-.22.06-.41-.22-.64.09-.49-.15-.77.15-.63-.21-1-.06-.07.06-.49.48-.21v-.34l-.2-.08.06-.45-.13-.25L495,142l.2-.14-.05-.39.05-.67.12-.07.21-.8.48-1,.42-.19.06-.55-.06-.15.06-.31.26-.17.16-.56h-.36v-.21l.14-.25-.06-.24.06-.24h.06v-.57l.48-.06.21-.5,1-1.33h.2a1.76,1.76,0,0,1,.46-.55l.2.07a1.31,1.31,0,0,0,.48-.57h.15l.28-.2h.11l.21-.36Zm-.35,2.91-.51.21-.4-.21a3.27,3.27,0,0,1-.57.48,1.36,1.36,0,0,1-.3.75c-.17.21-.29.31-.35.31h-.27l.18.37c-.11.23-.25.59-.42,1.06l-.24-.06-.09.44.09.63.29.19a2.79,2.79,0,0,0,.73.2l.47-.35,1-.11.52-.87.68-.67.09-1.26-.23-.41,0-.6h-.34Z"/><path class="cls-1" d="M513.26,131.43l.57.09.82-.12v1.19a.63.63,0,0,0-.25.46.87.87,0,0,0-.41.74,1.19,1.19,0,0,0,0,.31l-.1.66-1.09,2.31-.17,1.13-.26.41,0,.87L512,141.8a.24.24,0,0,0-.06.14.3.3,0,0,0,.15.24l.67-1,.38-.24.3-.82.57-.48.69-1.23a2.47,2.47,0,0,1,1.2-.91,1.63,1.63,0,0,1,.43-.84,2,2,0,0,0,.37-.3,6,6,0,0,1,.57-.5l-.06-.12c.7-.44,1-.74,1-.9a2,2,0,0,0,1-.88c.7-.75,1.21-1.15,1.52-1.19a1.74,1.74,0,0,0,.39-.16,1.35,1.35,0,0,1,.46-.18.92.92,0,0,1,.8-.47c.19,0,.29.17.29.5l0,1.11-.19.63,0,.81-.33,1-.33,2.41q-.06.21-.21.24l.18.77-.21.43.36.24-.12.22a2.62,2.62,0,0,0-.29.55,2.79,2.79,0,0,1,.23.32l-.09,1.37h.06c.1,1.2.21,1.8.34,1.81l.62-.27a3.22,3.22,0,0,1,1.13-1.2.66.66,0,0,0,.39-.2c.16,0,.26-.06.29-.18a1.9,1.9,0,0,1,.47-.24,4.44,4.44,0,0,0,.86-.46l.5.14a.83.83,0,0,1,.22.38c-.26.37-.55.82-.86,1.35s-.52.78-.65.78h-.4l-.31.53-.75.17-.65,1-.54.17L520.36,148l-.63.74-.09-.64-.54,0-.19-1-.29-.27,0-1.2-.14-.73c0-.61.09-.94.29-1v-.09l.17-.8,0-1.11.34-.77-.23-.33.46-.63,0-1.32.25-.63-.42-.66.11,0V137l.28-.18v-.1l0-.29v-.07a1.13,1.13,0,0,0-.65-.27l-.71.67-1,.53-1.43,1.88-.22.39a3.39,3.39,0,0,0-.63.84l-.29.24a3.15,3.15,0,0,0-.06.46l-.57.77-.6,1-1,1.9h-.06l-.17.48-.28,1.13a14.76,14.76,0,0,0-1.1,1.19l-.48.14-.31.6-.2,0-.39-.1a1.67,1.67,0,0,0-.69.17l.31-.7.11-.63a24.72,24.72,0,0,0,.86-2.94h.06v-.5l.31-1,.12-.88h.05l-.14-.56.14-1.06.11-.38a3.56,3.56,0,0,1,.41-.73l-.09-.46.17-.31a5.14,5.14,0,0,1-.26-1.5l.09-.57-.06-.1v-.2a1.4,1.4,0,0,0-.91-.33.69.69,0,0,0-.34.1,2.64,2.64,0,0,0-.55.93c-.63.25-1,.41-1.11.47l-.26-.66A.63.63,0,0,1,508,136a.44.44,0,0,1,.26-.15h.25l.23-.38.45-.13-.17-.14V135l.55.11.6-.77.85-.59.15-.22h.08l-.14-.24a.32.32,0,0,0,.17.07c.08,0,.12-.1.12-.31a1.75,1.75,0,0,1,1.08-.8.73.73,0,0,1,.66-.56v-.17Z"/><path class="cls-1" d="M534.14,131.58l.37.07h0l0,.17h.11l.21.24.68.07h.69l.39.26h.15l.22.87-.31.31v.32l.48.57,0,1.57h-.21l-.07.31h-.06v.49l.28.07.11.17-.17.33v.23l-.37.21-.26.26-.76.47a5.35,5.35,0,0,1-.52.57l-.22.7-1.29.6-1.28,0,.06.38h-.27l0,.1-.63.15-.06-.25-.22.1V141l-.54.24-.2.71.27.87v.42l.15.38a2.91,2.91,0,0,1-.42,1.06l.08.31-.14.07.33.17v.53l.29.24a4.63,4.63,0,0,0,.89-.38l.22.24.06-.07a5.15,5.15,0,0,0,.95-.17l.1-.21h.35l.28,0,.35.2-.09-.13h.3l.36-.36.42,0H535l.41-.21.11.1.22-.24h.29l.28-.32a2.67,2.67,0,0,0,1-.45v-.18l.42-.14.45-.77.49.07a.94.94,0,0,0,.58.32l.22.24-.34.74.06.46-.47.31,0,.17-.71.1-.38.46-.42,0-.12.39-.56-.07-.18.48-.45-.07-.18.24a2.29,2.29,0,0,0-.51.26l-.2-.14-.34.38h-.48l-.29.17h-.18l-.22.22a2.89,2.89,0,0,0-.77.38l-.2-.18h-.43l-.17.18-.16-.07-.21.07-.06-.07-.14.39H531l-.32.2a2,2,0,0,1-.7.18l-.15.17h-.26l-.39.06-.29.43-.4-.17-.2.31-.16-.05a4.53,4.53,0,0,1-.59-.65l.06-.41-.06-.22.06-.41-.22-.64.09-.49-.15-.77.15-.63-.2-1-.06-.07.06-.49.48-.21v-.34l-.21-.08.06-.45-.13-.25.07-.41.21-.14-.06-.39.06-.67.11-.07.21-.8.48-1,.42-.19.06-.55-.06-.15.06-.31.26-.17.17-.56h-.37v-.21l.15-.25-.06-.24.06-.24h0v-.57l.49-.06.2-.5,1-1.33h.21a1.6,1.6,0,0,1,.45-.55l.2.07a1.38,1.38,0,0,0,.49-.57h.14l.28-.2h.12l.2-.36Zm-.35,2.91-.51.21-.39-.21a4.22,4.22,0,0,1-.57.48,1.36,1.36,0,0,1-.3.75c-.17.21-.29.31-.36.31h-.26l.17.37c-.11.23-.25.59-.42,1.06l-.24-.06-.08.44.08.63.3.19a2.66,2.66,0,0,0,.73.2l.46-.35,1-.11.51-.87.68-.67.09-1.26-.23-.41,0-.6h-.34Z"/><path class="cls-1" d="M547.06,129.62l.48.14.28.49.26.14-.2.87-.66.46-2.67,1.51-.41.83.09.94.92,1.63.19.73.53-.08.56.63v.63l.28.14,1,2.24.31.53a5.58,5.58,0,0,0-.12.87l.06.25-.28.48-.47,1.16a4.87,4.87,0,0,0-1.05,1.37l-.39.07-.06.24-1.85,1.69a3.48,3.48,0,0,1-1.14,1l-1.76.56a1.78,1.78,0,0,1-.62.63l-.28-.63v-.39l-.21-.31.57-.49a2.24,2.24,0,0,1,.25-.45l.15-.15a2.5,2.5,0,0,1,.7-.24q.33-.39.54-.39h.22c.28-.28.48-.48.6-.62h.2l.06-.19.2-.07.14-.51h.11l.27-.49.42-.21.12-.43.14-.13.28-1.06-.22-.55-.6-2.07-1.4-1.16a10.83,10.83,0,0,0-.63-.94l-.11-.56a2.81,2.81,0,0,0-.34-.74l-.15-.07-.2-.66V136a3.49,3.49,0,0,0-.21-.84l.38-1.13.15.07v-.49l.34-.31v-.21a5.09,5.09,0,0,0,.74-.73h.28v.24l.26-.64v.14c0-.07.2-.19.57-.37a.39.39,0,0,1,.32-.33,7.17,7.17,0,0,0,.48-.8l.28-.07.2.07.12-.14h.48v-.1l.84-.29a2.37,2.37,0,0,0,.59-.34Z"/><path class="cls-1" d="M556.82,129.62l.48.14.27.49.27.14-.21.87-.65.46-2.68,1.51-.4.83.08.94.92,1.63.19.73.53-.08.57.63v.63l.28.14,1,2.24.31.53a5.58,5.58,0,0,0-.12.87l.06.25-.28.48-.46,1.16a4.5,4.5,0,0,0-1.05,1.37l-.4.07-.06.24-1.85,1.69a3.48,3.48,0,0,1-1.14,1l-1.75.56a1.89,1.89,0,0,1-.63.63l-.28-.63v-.39l-.2-.31.57-.49a1.81,1.81,0,0,1,.25-.45l.14-.15a2.5,2.5,0,0,1,.7-.24q.35-.39.54-.39H552c.28-.28.48-.48.6-.62h.2l.06-.19.21-.07.13-.51h.12l.26-.49.42-.21.12-.43.14-.13.28-1.06-.22-.55-.6-2.07-1.4-1.16a10.83,10.83,0,0,0-.63-.94l-.11-.56a2.52,2.52,0,0,0-.34-.74l-.14-.07-.21-.66V136a3.63,3.63,0,0,0-.2-.84l.38-1.13.14.07v-.49l.34-.31v-.21a4.62,4.62,0,0,0,.74-.73h.28v.24l.26-.64v.14c0-.07.2-.19.57-.37a.39.39,0,0,1,.32-.33,6.47,6.47,0,0,0,.49-.8l.27-.07.21.07.12-.14h.48v-.1l.83-.29a2.19,2.19,0,0,0,.6-.34Z"/><rect class="cls-1" x="17.47" y="111.15" width="557.14" height="3.9"/></svg>